<svg width="360" height="640" viewBox="0 0 360 640" fill="none" xmlns="http://www.w3.org/2000/svg">
<rect width="360" height="640" fill="white"/>
<g filter="url(#filter0_d_3691:9836)">
<path d="M66.0706 321.968H64.7266V322.4C64.7266 324.304 62.5186 325.744 59.8946 326.112L60.4226 327.136C62.5986 326.768 64.5346 325.76 65.3986 324.208C66.2466 325.76 68.1826 326.768 70.3426 327.136L70.8706 326.112C68.2466 325.744 66.0706 324.304 66.0706 322.4V321.968ZM61.6866 315.84C61.6866 314.784 63.1106 314.16 65.3986 314.16C67.6546 314.16 69.0786 314.784 69.0786 315.84C69.0786 316.896 67.6546 317.52 65.3986 317.52C63.1106 317.52 61.6866 316.896 61.6866 315.84ZM66.0386 319.936V318.528C68.7426 318.4 70.4226 317.424 70.4226 315.84C70.4226 314.128 68.4866 313.136 65.3826 313.136C62.2786 313.136 60.3426 314.128 60.3426 315.84C60.3426 317.424 62.0066 318.384 64.7266 318.528V319.936H58.9026V320.992H71.8626V319.936H66.0386Z" fill="#333333"/>
<path d="M81.9413 319.776C79.8293 319.072 78.4693 317.392 78.4693 315.52V314.96H81.6373V313.904H73.9413V314.96H77.1573V315.52C77.1573 317.584 75.7173 319.44 73.5573 320.192L74.2293 321.232C75.9413 320.624 77.2373 319.344 77.8453 317.712C78.4533 319.136 79.6853 320.272 81.3173 320.8L81.9413 319.776ZM80.1973 326.128C78.0533 326.128 76.7733 325.536 76.7733 324.512C76.7733 323.504 78.0533 322.912 80.1973 322.912C82.3093 322.912 83.6053 323.504 83.6053 324.512C83.6053 325.536 82.3093 326.128 80.1973 326.128ZM80.1973 321.872C77.2533 321.872 75.4613 322.848 75.4613 324.512C75.4613 326.192 77.2533 327.168 80.1973 327.168C83.1093 327.168 84.9173 326.192 84.9173 324.512C84.9173 322.848 83.1093 321.872 80.1973 321.872ZM84.7573 316.464V312.848H83.4453V321.504H84.7573V317.568H86.8853V316.464H84.7573Z" fill="#333333"/>
<path d="M104.11 317.552C101.55 317.2 99.0702 315.6 99.0702 313.696V313.056H97.7262V313.696C97.7262 315.6 95.2462 317.2 92.7022 317.552L93.1982 318.608C95.3902 318.24 97.5022 317.104 98.3982 315.456C99.3102 317.104 101.422 318.24 103.614 318.608L104.11 317.552ZM93.3582 323.568H101.982V327.2H103.294V322.496H93.3582V323.568ZM99.0542 320.032V317.84H97.7422V320.032H91.9182V321.104H104.942V320.032H99.0542Z" fill="#333333"/>
<path d="M111.767 317.376C111.767 315.968 112.823 314.976 114.231 314.976C115.639 314.976 116.695 315.968 116.695 317.376C116.695 318.784 115.639 319.776 114.231 319.776C112.823 319.776 111.767 318.784 111.767 317.376ZM117.975 317.376C117.975 315.296 116.375 313.84 114.231 313.84C112.087 313.84 110.487 315.296 110.487 317.376C110.487 319.456 112.087 320.912 114.231 320.912C116.375 320.912 117.975 319.456 117.975 317.376ZM113.735 322.32H112.423V326.864H121.991V325.792H113.735V322.32ZM121.351 317.2V312.832H120.039V323.392H121.351V318.288H123.463V317.2H121.351Z" fill="#333333"/>
<path d="M137.782 320.176C135.894 319.376 134.902 317.568 134.902 315.824V314H133.574V315.824C133.574 317.232 132.87 318.96 131.43 319.952C129.974 318.928 129.238 317.152 129.238 315.824V314H127.942V315.824C127.942 317.408 126.902 319.344 125.062 320.176L125.766 321.184C127.126 320.528 128.086 319.312 128.582 317.952C129.03 319.344 129.974 320.672 131.414 321.344C132.854 320.688 133.782 319.408 134.246 318.032C134.726 319.392 135.686 320.56 137.062 321.184L137.782 320.176ZM124.934 324.192V325.28H137.942V324.192H124.934Z" fill="#333333"/>
<path d="M151.157 317.152H142.709V313.36H141.397V318.224H151.157V317.152ZM142.613 322.64H141.301V326.832H151.237V325.76H142.613V322.64ZM139.637 320.144V321.2H152.645V320.144H139.637Z" fill="#333333"/>
<path d="M163.277 318.816H160.477V315.376H163.277V318.816ZM167.997 316.448V317.712H165.341V316.448H167.997ZM165.341 319.392H167.997V321.28H170.109V312.64H167.997V314.768H165.341V313.696H158.397V320.48H165.341V319.392ZM165.117 325.76C163.197 325.76 162.189 325.36 162.189 324.512C162.189 323.664 163.197 323.264 165.117 323.264C167.053 323.264 168.061 323.664 168.061 324.512C168.061 325.36 167.053 325.76 165.117 325.76ZM165.117 321.648C161.997 321.648 160.077 322.704 160.077 324.512C160.077 326.32 161.997 327.376 165.117 327.376C168.253 327.376 170.173 326.32 170.173 324.512C170.173 322.704 168.253 321.648 165.117 321.648Z" fill="#333333"/>
<path d="M180.668 316.944H177.644V314.72H180.668V316.944ZM175.548 316.944H173.772V318.624H184.524V316.944H182.764V314.72H184.636V313.04H173.676V314.72H175.548V316.944ZM182.156 325.552H176.124V324.064H182.156V325.552ZM185.82 321.216V319.536H172.508V321.216H178.108V322.416H174.06V327.2H184.236V322.416H180.22V321.216H185.82Z" fill="#333333"/>
<path d="M191.524 314.144V315.856H196.34C195.956 319.12 194.132 321.456 190.708 323.216L191.892 324.832C196.788 322.352 198.468 318.56 198.468 314.144H191.524ZM204.452 318.256H202.388V312.624H200.276V327.344H202.388V320H204.452V318.256Z" fill="#333333"/>
<path d="M210.979 318.848H208.083V317.024H210.979V318.848ZM213.059 313.584H210.979V315.408H208.083V313.584H206.003V320.496H213.059V313.584ZM212.339 325.76C210.467 325.76 209.459 325.36 209.459 324.528C209.459 323.696 210.467 323.296 212.339 323.296C214.227 323.296 215.235 323.696 215.235 324.528C215.235 325.36 214.227 325.76 212.339 325.76ZM212.339 321.648C209.283 321.648 207.363 322.72 207.363 324.528C207.363 326.32 209.283 327.392 212.339 327.392C215.411 327.392 217.331 326.32 217.331 324.528C217.331 322.72 215.411 321.648 212.339 321.648ZM217.171 316.08V312.656H215.059V321.328H217.171V317.808H219.123V316.08H217.171Z" fill="#333333"/>
<path d="M227.601 324.288V320.608H231.969V319.552H223.409V315.056H231.825V313.984H222.097V320.608H226.273V324.288H220.433V325.376H233.473V324.288H227.601Z" fill="#333333"/>
<path d="M240.666 315.296H246.026V314.208H239.354V323.632H240.49C243.194 323.632 245.082 323.536 247.274 323.12L247.13 322.032C245.05 322.4 243.21 322.512 240.666 322.512V315.296ZM252.154 318.496H249.786V312.832H248.474V327.216H249.786V319.584H252.154V318.496Z" fill="#333333"/>
<path d="M258.553 314.08H257.257V316.656C257.257 319.376 255.513 322.128 253.401 323.136L254.201 324.208C255.881 323.344 257.257 321.552 257.913 319.392C258.601 321.44 259.977 323.136 261.609 323.936L262.393 322.88C260.265 321.92 258.553 319.28 258.553 316.656V314.08ZM263.897 312.832V327.216H265.209V312.832H263.897Z" fill="#333333"/>
<path d="M271.016 317.488H278.344V320.128H271.016V317.488ZM275.336 324.272V321.184H279.624V313.856H278.344V316.416H271.016V313.856H269.72V321.184H274.008V324.272H268.184V325.344H281.192V324.272H275.336Z" fill="#333333"/>
<path d="M287.735 315.392H290.919V314.304H283.159V315.392H286.439V317.216C286.439 319.648 284.711 322.368 282.663 323.392L283.431 324.432C285.047 323.6 286.439 321.776 287.095 319.68C287.751 321.6 289.095 323.28 290.695 324.08L291.447 323.024C289.367 322.048 287.735 319.504 287.735 317.216V315.392ZM296.311 318.624H293.943V312.848H292.631V327.184H293.943V319.728H296.311V318.624Z" fill="#333333"/>
<path d="M298.853 322.464H299.861L300.053 315.68L300.101 314.016H298.613L298.661 315.68L298.853 322.464ZM299.349 326.208C299.941 326.208 300.405 325.76 300.405 325.104C300.405 324.432 299.941 323.968 299.349 323.968C298.773 323.968 298.293 324.432 298.293 325.104C298.293 325.76 298.773 326.208 299.349 326.208Z" fill="#333333"/>
</g>
<defs>
<filter id="filter0_d_3691:9836" x="58.9026" y="312.624" width="243.503" height="16.7676" filterUnits="userSpaceOnUse" color-interpolation-filters="sRGB">
<feFlood flood-opacity="0" result="BackgroundImageFix"/>
<feColorMatrix in="SourceAlpha" type="matrix" values="0 0 0 0 0 0 0 0 0 0 0 0 0 0 0 0 0 0 127 0" result="hardAlpha"/>
<feOffset dx="1" dy="1"/>
<feGaussianBlur stdDeviation="0.5"/>
<feComposite in2="hardAlpha" operator="out"/>
<feColorMatrix type="matrix" values="0 0 0 0 0 0 0 0 0 0 0 0 0 0 0 0 0 0 0.25 0"/>
<feBlend mode="normal" in2="BackgroundImageFix" result="effect1_dropShadow_3691:9836"/>
<feBlend mode="normal" in="SourceGraphic" in2="effect1_dropShadow_3691:9836" result="shape"/>
</filter>
</defs>
</svg>
