<svg width="360" height="640" viewBox="0 0 360 640" fill="none" xmlns="http://www.w3.org/2000/svg">
<rect width="360" height="640" fill="white"/>
<g filter="url(#filter0_d_3691:9835)">
<path d="M43.9117 307.544H36.7917V305.432H43.9117V307.544ZM45.2237 302.408H43.9117V304.376H36.7917V302.408H35.4957V308.616H45.2237V302.408ZM46.8717 310.344H33.8477V311.4H39.6717V316.2H40.9837V311.4H46.8717V310.344Z" fill="#333333"/>
<path d="M58.7104 306.216H50.1984V310.68H60.3264V309.608H51.4944V307.272H59.9904V302.936H50.1664V303.992H58.7104V306.216ZM48.5664 313.288V314.376H61.6064V313.288H48.5664Z" fill="#333333"/>
<path d="M74.8052 306.152H66.3572V302.36H65.0452V307.224H74.8052V306.152ZM66.2612 311.64H64.9492V315.832H74.8852V314.76H66.2612V311.64ZM63.2852 309.144V310.2H76.2932V309.144H63.2852Z" fill="#333333"/>
<path d="M85.9719 307.704H83.4919C83.9719 306.424 84.1799 305.064 84.1799 303.656H78.6439V304.728H82.8839C82.6439 307.736 81.1079 310.312 78.0359 312.152L78.8039 313.096C80.7879 311.912 82.1639 310.424 83.0279 308.76H85.9719V315.464H87.2199V302.216H85.9719V307.704ZM88.9639 301.832V316.184H90.2119V301.832H88.9639Z" fill="#333333"/>
<path d="M96.9888 302.696V303.768H102.141C101.917 306.056 99.8688 307.848 96.3488 308.712L96.8448 309.784C101.053 308.744 103.565 306.312 103.565 302.696H96.9888ZM101.581 314.968H99.1168V313.096H101.581V314.968ZM101.581 312.088H99.1168V310.36H97.8848V315.976H102.797V310.36H101.581V312.088ZM106.637 310.216H105.373V311.416C105.373 312.792 104.541 314.392 102.893 315.144L103.597 316.12C104.781 315.576 105.581 314.6 105.997 313.48C106.429 314.616 107.213 315.576 108.397 316.12L109.101 315.144C107.437 314.408 106.637 312.792 106.637 311.384V310.216ZM107.453 305.144V301.832H106.141V309.64H107.453V306.232H109.581V305.144H107.453Z" fill="#333333"/>
<path d="M122.812 301.848H121.5V312.328H122.812V301.848ZM112.652 306.36C112.652 304.968 113.708 303.976 115.1 303.976C116.524 303.976 117.58 304.968 117.58 306.36C117.58 307.784 116.524 308.776 115.1 308.776C113.708 308.776 112.652 307.784 112.652 306.36ZM118.86 306.36C118.86 304.296 117.244 302.84 115.1 302.84C112.972 302.84 111.372 304.296 111.372 306.36C111.372 308.44 112.972 309.912 115.1 309.912C117.244 309.912 118.86 308.44 118.86 306.36ZM114.892 314.792V311.256H113.58V315.864H123.244V314.792H114.892Z" fill="#333333"/>
<path d="M130.1 303.368V304.456H135.364C135.06 307.848 133.092 310.6 129.428 312.44L130.148 313.464C134.788 311.144 136.66 307.448 136.66 303.368H130.1ZM142.676 307.656H140.372V301.832H139.06V316.184H140.372V308.744H142.676V307.656Z" fill="#333333"/>
<path d="M146.275 312.088H154.547V316.152H155.875V311.032H146.275V312.088ZM154.547 301.832V304.392H151.379C151.507 303.88 151.571 303.336 151.571 302.792H145.011V303.864H150.163C149.907 306.312 147.731 308.216 144.259 309.16L144.787 310.216C147.859 309.352 150.083 307.72 151.043 305.464H154.547V307.432H150.835V308.504H154.547V310.392H155.875V301.832H154.547Z" fill="#333333"/>
<path d="M162.018 311.816C160.866 311.816 160.146 310.36 160.146 308.008C160.146 305.704 160.866 304.248 162.018 304.248C163.138 304.248 163.874 305.704 163.874 308.008C163.874 310.36 163.138 311.816 162.018 311.816ZM166.866 307.416H165.058C164.898 304.712 163.746 303.032 162.018 303.032C160.146 303.032 158.946 304.952 158.946 308.008C158.946 311.112 160.146 313.032 162.018 313.032C163.778 313.032 164.946 311.304 165.058 308.488H166.866V315.48H168.114V302.152H166.866V307.416ZM169.714 301.832V316.184H170.962V301.832H169.714Z" fill="#333333"/>
<path d="M178.513 303.064H177.201V305.64C177.201 308.296 175.569 311.064 173.489 312.104L174.289 313.144C175.905 312.28 177.233 310.472 177.857 308.344C178.513 310.36 179.825 312.072 181.457 312.888L182.225 311.848C180.145 310.856 178.513 308.248 178.513 305.64V303.064ZM184.001 301.832V306.696H180.673V307.768H184.001V316.2H185.313V301.832H184.001Z" fill="#333333"/>
<path d="M197.674 308.424H193.802V306.056H197.674V308.424ZM198.97 306.744H202.282V311.752H203.61V301.848H202.282V305.672H198.97V302.696H197.674V305.016H193.802V302.696H192.506V309.496H198.97V306.744ZM199.658 310.776H198.314V311.192C198.314 313.128 196.042 314.696 193.498 315.112L193.994 316.136C196.17 315.752 198.122 314.632 198.986 313.016C199.834 314.664 201.786 315.752 203.978 316.136L204.474 315.112C201.898 314.696 199.658 313.176 199.658 311.192V310.776Z" fill="#333333"/>
<path d="M210.344 311.784C208.968 311.784 208.008 310.28 208.008 307.944C208.008 305.624 208.968 304.12 210.344 304.12C211.704 304.12 212.664 305.624 212.664 307.944C212.664 310.28 211.704 311.784 210.344 311.784ZM217.016 301.832V307.304H213.896C213.688 304.616 212.28 302.936 210.344 302.936C208.248 302.936 206.76 304.888 206.76 307.944C206.76 311 208.248 312.952 210.344 312.952C212.344 312.952 213.768 311.192 213.896 308.376H217.016V316.216H218.328V301.832H217.016Z" fill="#333333"/>
<path d="M223.095 303.224H221.799V312.552H222.935C225.127 312.552 227.319 312.392 229.767 311.896L229.607 310.808C227.287 311.272 225.159 311.448 223.095 311.448V303.224ZM234.567 307.56H232.263V301.832H230.951V316.184H232.263V308.648H234.567V307.56Z" fill="#333333"/>
<path d="M240.288 303.368V304.456H245.552C245.248 307.848 243.28 310.6 239.616 312.44L240.336 313.464C244.976 311.144 246.848 307.448 246.848 303.368H240.288ZM252.864 307.656H250.56V301.832H249.248V316.184H250.56V308.744H252.864V307.656Z" fill="#333333"/>
<path d="M256.463 312.088H264.735V316.152H266.063V311.032H256.463V312.088ZM264.735 301.832V304.392H261.567C261.695 303.88 261.759 303.336 261.759 302.792H255.199V303.864H260.351C260.095 306.312 257.919 308.216 254.447 309.16L254.975 310.216C258.047 309.352 260.271 307.72 261.231 305.464H264.735V307.432H261.023V308.504H264.735V310.392H266.063V301.832H264.735Z" fill="#333333"/>
<path d="M276.621 305.56V306.632H279.453V310.392H280.781V301.848H279.453V305.56H276.621ZM277.421 308.824C275.341 308.088 273.933 306.28 273.933 304.44V303.944H277.085V302.888H269.421V303.944H272.621V304.44C272.621 306.504 271.149 308.44 269.005 309.224L269.693 310.264C271.373 309.624 272.701 308.28 273.309 306.616C273.933 308.088 275.165 309.272 276.765 309.848L277.421 308.824ZM276.045 315.16C273.885 315.16 272.573 314.552 272.573 313.512C272.573 312.472 273.885 311.848 276.045 311.848C278.205 311.848 279.517 312.472 279.517 313.512C279.517 314.552 278.205 315.16 276.045 315.16ZM276.045 310.84C273.101 310.84 271.261 311.816 271.261 313.512C271.261 315.208 273.101 316.184 276.045 316.184C278.989 316.184 280.829 315.208 280.829 313.512C280.829 311.816 278.989 310.84 276.045 310.84Z" fill="#333333"/>
<path d="M292.108 308.04C290.028 307.528 288.572 306.152 288.572 304.6V304.36H291.74V303.304H288.572V301.768H287.26V303.304H284.076V304.36H287.26V304.6C287.26 306.312 285.756 307.752 283.628 308.312L284.22 309.32C285.948 308.84 287.308 307.816 287.932 306.424C288.588 307.672 289.9 308.616 291.548 309.048L292.108 308.04ZM287.02 313.48H294.812V310.12H285.692V311.144H293.516V312.504H285.74V316.024H295.34V315H287.02V313.48ZM294.812 305.032V301.848H293.5V309.416H294.812V306.12H296.94V305.032H294.812Z" fill="#333333"/>
<path d="M302.603 304.584H305.163V303.512H298.619V304.584H301.339V305.88C301.339 308.52 300.219 311.128 298.219 312.328L299.019 313.304C300.443 312.408 301.483 310.728 301.979 308.76C302.475 310.584 303.467 312.12 304.859 312.952L305.659 311.992C303.675 310.872 302.603 308.376 302.603 305.88V304.584ZM306.443 306.984H304.075V308.056H306.443V315.432H307.691V302.152H306.443V306.984ZM309.323 301.816V316.168H310.587V301.816H309.323Z" fill="#333333"/>
<path d="M320.266 313.336V310.632H324.858V309.576H316.026V307.256H324.522V302.888H314.698V303.96H323.242V306.2H314.73V310.632H318.938V313.336H313.098V314.408H326.138V313.336H320.266Z" fill="#333333"/>
<path d="M140.821 325.936H137.525V324.528H135.397V325.936H132.117V327.584H140.805L140.821 325.936ZM134.869 330.592C134.869 329.888 135.525 329.52 136.469 329.52C137.413 329.52 138.069 329.888 138.069 330.592C138.069 331.296 137.413 331.664 136.469 331.664C135.525 331.664 134.869 331.296 134.869 330.592ZM140.085 330.592C140.085 329.024 138.597 327.984 136.469 327.984C134.341 327.984 132.853 329.024 132.853 330.592C132.853 332.144 134.341 333.2 136.469 333.2C138.597 333.2 140.085 332.144 140.085 330.592ZM141.637 337.568H136.245V336.528H141.637V337.568ZM141.637 334.944H136.245V333.824H134.149V339.2H143.733V333.824H141.637V334.944ZM145.685 328.176H143.733V324.656H141.621V333.28H143.733V329.904H145.685V328.176Z" fill="#333333"/>
<path d="M149.796 331.584H154.58V325.888H147.62V327.568H152.42V329.92H147.636V335.984H148.964C151.636 335.984 153.796 335.888 156.196 335.472L155.972 333.76C153.892 334.112 152.036 334.224 149.796 334.24V331.584ZM156.996 324.624V339.408H159.108V324.624H156.996Z" fill="#333333"/>
<path d="M170.451 331.36C168.179 330.592 167.155 328.816 167.123 327.136H169.987V325.456H162.067V327.136H164.963C164.931 328.96 163.859 330.832 161.491 331.632L162.563 333.296C164.275 332.736 165.427 331.552 166.083 330.112C166.707 331.424 167.811 332.48 169.427 333.008L170.451 331.36ZM163.843 335.744H171.779V339.392H173.891V334.064H163.843V335.744ZM171.779 324.656V328.16H169.603V329.856H171.779V333.408H173.891V324.656H171.779Z" fill="#333333"/>
<path d="M188.53 324.656H186.402V335.232H188.53V324.656ZM178.562 329.328C178.562 328.112 179.426 327.408 180.514 327.408C181.618 327.408 182.45 328.112 182.45 329.328C182.45 330.512 181.618 331.232 180.514 331.232C179.426 331.232 178.562 330.512 178.562 329.328ZM184.514 329.328C184.514 327.152 182.77 325.584 180.514 325.584C178.258 325.584 176.498 327.152 176.498 329.328C176.498 331.472 178.258 333.056 180.514 333.056C182.77 333.056 184.514 331.472 184.514 329.328ZM180.834 337.44V334.192H178.722V339.12H188.898V337.44H180.834Z" fill="#333333"/>
<path d="M195.305 326.144V327.856H200.121C199.737 331.12 197.913 333.456 194.489 335.216L195.673 336.832C200.569 334.352 202.249 330.56 202.249 326.144H195.305ZM208.233 330.256H206.169V324.624H204.057V339.344H206.169V332H208.233V330.256Z" fill="#333333"/>
<path d="M211.624 335.664H219.56V339.312H221.672V334H211.624V335.664ZM219.56 324.64V327.008H217.048C217.128 326.544 217.176 326.064 217.176 325.568H210.344V327.248H214.904C214.584 329.248 212.76 330.896 209.496 331.728L210.312 333.376C213.416 332.544 215.56 330.976 216.552 328.704H219.56V330.144H216.312V331.84H219.56V333.376H221.672V324.656L219.56 324.64Z" fill="#333333"/>
<path d="M225.463 334.464H226.471L226.663 327.68L226.711 326.016H225.223L225.271 327.68L225.463 334.464ZM225.959 338.208C226.551 338.208 227.015 337.76 227.015 337.104C227.015 336.432 226.551 335.968 225.959 335.968C225.383 335.968 224.903 336.432 224.903 337.104C224.903 337.76 225.383 338.208 225.959 338.208Z" fill="#333333"/>
</g>
<defs>
<filter id="filter0_d_3691:9835" x="33.8477" y="301.768" width="294.29" height="39.6396" filterUnits="userSpaceOnUse" color-interpolation-filters="sRGB">
<feFlood flood-opacity="0" result="BackgroundImageFix"/>
<feColorMatrix in="SourceAlpha" type="matrix" values="0 0 0 0 0 0 0 0 0 0 0 0 0 0 0 0 0 0 127 0" result="hardAlpha"/>
<feOffset dx="1" dy="1"/>
<feGaussianBlur stdDeviation="0.5"/>
<feComposite in2="hardAlpha" operator="out"/>
<feColorMatrix type="matrix" values="0 0 0 0 0 0 0 0 0 0 0 0 0 0 0 0 0 0 0.25 0"/>
<feBlend mode="normal" in2="BackgroundImageFix" result="effect1_dropShadow_3691:9835"/>
<feBlend mode="normal" in="SourceGraphic" in2="effect1_dropShadow_3691:9835" result="shape"/>
</filter>
</defs>
</svg>
