<svg width="360" height="640" viewBox="0 0 360 640" fill="none" xmlns="http://www.w3.org/2000/svg">
<rect width="360" height="640" fill="white"/>
<g filter="url(#filter0_d_3691:9834)">
<path d="M80.312 307.416H85.016V306.36H80.312V303.4H85.64V302.312H79V311.928H80.104C82.84 311.928 84.584 311.848 86.664 311.48L86.52 310.408C84.568 310.76 82.904 310.856 80.312 310.856V307.416ZM88.856 301V306.424H85.896V307.512H88.856V315.384H90.168V301H88.856Z" fill="#333333"/>
<path d="M98.3428 304.552H101.623V303.496H98.3588V301.272H97.0308V303.496H93.7188V304.552H97.0468V305.656C97.0468 308.168 95.4628 310.584 93.3348 311.592L94.0708 312.584C95.7188 311.784 97.0788 310.152 97.7188 308.152C98.3748 310.04 99.7347 311.592 101.383 312.344L102.103 311.32C99.9748 310.392 98.3428 308.056 98.3428 305.656V304.552ZM103.495 301V315.352H104.823V301H103.495Z" fill="#333333"/>
<path d="M117.376 306.968H113.312V302.936H117.376V306.968ZM121.856 304.072V305.768H118.656V304.072H121.856ZM118.656 306.792H121.856V309.288H123.168V301.032H121.856V303.048H118.656V301.896H112.032V308.008H118.656V306.792ZM123.504 311.224V310.232H119.296V308.856H117.968V310.232H113.76V311.224H117.952C117.952 312.648 115.664 314.024 113.184 314.312L113.616 315.304C115.792 315.016 117.776 314.04 118.64 312.68C119.472 314.008 121.392 315.016 123.568 315.304L124.016 314.312C121.536 314.008 119.296 312.6 119.296 311.224H123.504Z" fill="#333333"/>
<path d="M135.544 308.136H131.672V305.544H135.544V308.136ZM136.84 306.136H140.153V311.64H141.48V301.016H140.153V305.064H136.84V301.976H135.544V304.504H131.672V301.976H130.376V309.192H136.84V306.136ZM133.56 313.976V310.6H132.248V315.048H141.817V313.976H133.56Z" fill="#333333"/>
<path d="M150.855 301.912C147.879 301.912 145.639 303.496 145.639 305.88C145.639 308.28 147.879 309.848 150.855 309.848C153.831 309.848 156.071 308.28 156.071 305.88C156.071 303.496 153.831 301.912 150.855 301.912ZM150.855 302.984C153.127 302.984 154.823 304.152 154.823 305.88C154.823 307.624 153.127 308.776 150.855 308.776C148.599 308.776 146.887 307.624 146.887 305.88C146.887 304.152 148.599 302.984 150.855 302.984ZM144.359 312.376V313.464H157.399V312.376H144.359Z" fill="#333333"/>
<path d="M166.246 312.52V309.816H170.838V308.76H162.006V306.44H170.502V302.072H160.678V303.144H169.222V305.384H160.71V309.816H164.918V312.52H159.078V313.592H172.118V312.52H166.246Z" fill="#333333"/>
<path d="M183.295 307.896H179.263V303.352H183.295V307.896ZM184.575 302.296H177.983V308.936H184.575V302.296ZM180.911 310.536H179.599V315.048H189.167V313.976H180.911V310.536ZM188.527 305.384V301H187.215V311.512H188.527V306.488H190.639V305.384H188.527Z" fill="#333333"/>
<path d="M193.982 302.408H192.686V311.736H193.822C196.014 311.736 198.206 311.576 200.654 311.08L200.494 309.992C198.174 310.456 196.046 310.632 193.982 310.632V302.408ZM205.454 306.744H203.15V301.016H201.838V315.368H203.15V307.832H205.454V306.744Z" fill="#333333"/>
<path d="M218.332 305.336H209.884V301.544H208.572V306.408H218.332V305.336ZM209.788 310.824H208.476V315.016H218.412V313.944H209.788V310.824ZM206.812 308.328V309.384H219.82V308.328H206.812Z" fill="#333333"/>
<path d="M225.893 302.552V303.64H231.157C230.853 307.032 228.885 309.784 225.221 311.624L225.941 312.648C230.581 310.328 232.453 306.632 232.453 302.552H225.893ZM238.469 306.84H236.165V301.016H234.853V315.368H236.165V307.928H238.469V306.84Z" fill="#333333"/>
<path d="M241.06 306.856C243.412 306.568 245.54 305.512 246.34 303.928C247.14 305.512 249.284 306.568 251.636 306.856L252.1 305.832C249.572 305.544 247.268 304.28 247.188 302.664H251.652V301.592H241.028V302.664H245.492C245.412 304.28 243.076 305.544 240.58 305.832L241.06 306.856ZM252.868 308.824V307.768H239.844V308.824H245.684V310.728H241.284V311.784H249.908V315.384H251.22V310.728H246.996V308.824H252.868Z" fill="#333333"/>
<path d="M262.099 307.144C262.467 305.256 262.467 303.832 262.467 302.888V302.136H255.331V303.208H261.187C261.187 304.12 261.139 305.352 260.803 307L262.099 307.144ZM263.459 308.008C262.003 308.2 260.371 308.328 258.803 308.392V305.336H257.507V308.44C256.419 308.456 255.379 308.472 254.467 308.472L254.595 309.544C257.139 309.544 260.579 309.464 263.555 308.968L263.459 308.008ZM257.971 310.84H256.659V315.048H266.195V313.976H257.971V310.84ZM265.731 305.688V301.016H264.419V311.832H265.731V306.776H267.779V305.688H265.731Z" fill="#333333"/>
<path d="M271.426 307.464H276.721V302.344H270.066V303.416H275.394V306.408H270.113V311.912H271.298C273.762 311.912 275.938 311.816 278.53 311.384L278.402 310.312C275.89 310.712 273.778 310.824 271.426 310.824V307.464ZM279.745 301V315.384H281.057V301H279.745Z" fill="#333333"/>
<path d="M135.828 331.2H132.82V326.784H135.828V331.2ZM130.724 331.2H128.804V332.88H139.876V331.2H137.924V326.784H139.924V325.104H128.724V326.784H130.724V331.2ZM127.684 335.136V336.848H141.028V335.136H127.684Z" fill="#333333"/>
<path d="M145.347 330.768H150.131V325.072H143.171V326.752H147.971V329.104H143.187V335.168H144.515C147.187 335.168 149.347 335.072 151.747 334.656L151.523 332.944C149.443 333.296 147.587 333.408 145.347 333.424V330.768ZM152.547 323.808V338.592H154.659V323.808H152.547Z" fill="#333333"/>
<path d="M157.841 325.152V335.056H164.93V325.152H157.841ZM162.85 326.816V333.392H159.922V326.816H162.85ZM167.217 323.824V338.592H169.33V323.824H167.217Z" fill="#333333"/>
<path d="M176.432 334.48H182.096V336.736H176.432V334.48ZM174.352 338.384H184.16V332.832H174.352V338.384ZM175.904 330C174.832 330 174.048 329.312 174.048 328.16C174.048 327.04 174.832 326.384 175.904 326.384C176.992 326.384 177.776 327.04 177.776 328.16C177.776 329.312 176.992 330 175.904 330ZM182.048 323.824V327.296H179.696C179.296 325.696 177.792 324.592 175.904 324.592C173.712 324.592 172.032 326.096 172.032 328.16C172.032 330.272 173.712 331.76 175.904 331.76C177.808 331.76 179.312 330.656 179.712 329.008H182.048V332.176H184.16V323.824H182.048Z" fill="#333333"/>
<path d="M195.72 324.96H193.592V327.088C193.592 329.888 192.472 332.752 189.976 333.904L191.288 335.6C192.936 334.768 194.04 333.232 194.68 331.344C195.288 333.12 196.36 334.56 197.976 335.344L199.224 333.664C196.792 332.576 195.72 329.872 195.72 327.088V324.96ZM200.44 323.808V328.432H197.608V330.128H200.44V338.592H202.552V323.808H200.44Z" fill="#333333"/>
<path d="M214.999 323.808V338.592H217.111V323.808H214.999ZM205.623 324.992V335.152H212.887V324.992H210.791V328.56H207.719V324.992H205.623ZM207.719 330.208H210.791V333.472H207.719V330.208Z" fill="#333333"/>
<path d="M232.501 330.752C229.173 330.192 227.35 327.904 227.35 325.744V324.688H225.094V325.744C225.094 327.856 223.253 330.192 219.941 330.752L220.838 332.528C223.398 332.032 225.27 330.592 226.214 328.72C227.158 330.592 229.045 332.016 231.605 332.528L232.501 330.752ZM219.622 335.056V336.768H232.965V335.056H219.622Z" fill="#333333"/>
</g>
<path d="M311.039 35.224C313.775 35.224 315.391 33.576 315.391 31.64C315.391 29.928 314.447 29.016 313.007 28.424L311.455 27.768C310.447 27.368 309.615 27.064 309.615 26.216C309.615 25.432 310.271 24.968 311.311 24.968C312.287 24.968 313.071 25.32 313.823 25.944L315.023 24.456C314.063 23.48 312.687 22.936 311.311 22.936C308.911 22.936 307.215 24.424 307.215 26.36C307.215 28.088 308.415 29.048 309.615 29.544L311.199 30.216C312.255 30.664 312.975 30.936 312.975 31.816C312.975 32.648 312.319 33.176 311.087 33.176C310.047 33.176 308.927 32.648 308.079 31.864L306.719 33.496C307.871 34.6 309.455 35.224 311.039 35.224ZM317.487 35H319.855V31.672L321.407 29.672L324.479 35H327.071L322.815 27.816L326.431 23.144H323.823L319.903 28.296H319.855V23.144H317.487V35ZM328.456 35H330.824V23.144H328.456V35ZM333.737 35H336.105V30.792H337.689C340.233 30.792 342.265 29.576 342.265 26.872C342.265 24.072 340.249 23.144 337.625 23.144H333.737V35ZM336.105 28.92V25.032H337.449C339.081 25.032 339.945 25.496 339.945 26.872C339.945 28.232 339.161 28.92 337.529 28.92H336.105Z" fill="white"/>
<defs>
<filter id="filter0_d_3691:9834" x="79" y="301" width="204.058" height="39.5918" filterUnits="userSpaceOnUse" color-interpolation-filters="sRGB">
<feFlood flood-opacity="0" result="BackgroundImageFix"/>
<feColorMatrix in="SourceAlpha" type="matrix" values="0 0 0 0 0 0 0 0 0 0 0 0 0 0 0 0 0 0 127 0" result="hardAlpha"/>
<feOffset dx="1" dy="1"/>
<feGaussianBlur stdDeviation="0.5"/>
<feComposite in2="hardAlpha" operator="out"/>
<feColorMatrix type="matrix" values="0 0 0 0 0 0 0 0 0 0 0 0 0 0 0 0 0 0 0.25 0"/>
<feBlend mode="normal" in2="BackgroundImageFix" result="effect1_dropShadow_3691:9834"/>
<feBlend mode="normal" in="SourceGraphic" in2="effect1_dropShadow_3691:9834" result="shape"/>
</filter>
</defs>
</svg>
