<svg width="360" height="640" viewBox="0 0 360 640" fill="none" xmlns="http://www.w3.org/2000/svg">
<rect width="360" height="640" fill="white"/>
<g filter="url(#filter0_d_3691:9837)">
<path d="M100.01 308.248H96.0421V303.976H100.01V308.248ZM104.586 305.224V307H101.29V305.224H104.586ZM101.29 308.056H104.586V310.328H105.914V301.848H104.586V304.168H101.29V302.92H94.7461V309.288H101.29V308.056ZM101.162 315.144C99.0181 315.144 97.7061 314.52 97.7061 313.464C97.7061 312.408 99.0181 311.784 101.162 311.784C103.338 311.784 104.65 312.408 104.65 313.464C104.65 314.52 103.338 315.144 101.162 315.144ZM101.162 310.76C98.2181 310.76 96.3941 311.736 96.3941 313.464C96.3941 315.176 98.2181 316.168 101.162 316.168C104.122 316.168 105.962 315.176 105.962 313.464C105.962 311.736 104.122 310.76 101.162 310.76Z" fill="#333333"/>
<path d="M117.065 306.36H113.497V303.352H117.065V306.36ZM112.185 306.36H110.073V307.416H120.489V306.36H118.377V303.352H120.553V302.296H110.025V303.352H112.185V306.36ZM118.921 314.936H111.689V312.552H118.921V314.936ZM121.785 309.832V308.776H108.809V309.832H114.649V311.512H110.409V315.992H120.201V311.512H115.961V309.832H121.785Z" fill="#333333"/>
<path d="M136.52 308.936H134.392C134.792 306.872 134.792 305.352 134.792 304.008V302.76H125.16V303.816H133.512V304.008C133.512 305.352 133.512 306.872 133.064 308.936H123.544V310.008H129.336V316.2H130.664V310.008H136.52V308.936Z" fill="#333333"/>
<path d="M149.622 307.176H141.366V303.752H149.446V302.68H140.022V308.232H149.622V307.176ZM151.254 310.104H138.246V311.176H144.054V316.12H145.366V311.176H151.254V310.104Z" fill="#333333"/>
<path d="M153.317 318.04C154.757 317.432 155.653 316.232 155.653 314.696C155.653 313.624 155.189 312.968 154.421 312.968C153.829 312.968 153.317 313.368 153.317 313.992C153.317 314.664 153.829 315.016 154.389 315.016C154.453 315.016 154.501 315.016 154.565 315C154.565 315.944 153.973 316.728 152.965 317.176L153.317 318.04Z" fill="#333333"/>
<path d="M166.916 308.248H162.948V303.976H166.916V308.248ZM171.492 305.224V307H168.196V305.224H171.492ZM168.196 308.056H171.492V310.328H172.82V301.848H171.492V304.168H168.196V302.92H161.652V309.288H168.196V308.056ZM168.068 315.144C165.924 315.144 164.612 314.52 164.612 313.464C164.612 312.408 165.924 311.784 168.068 311.784C170.244 311.784 171.556 312.408 171.556 313.464C171.556 314.52 170.244 315.144 168.068 315.144ZM168.068 310.76C165.124 310.76 163.3 311.736 163.3 313.464C163.3 315.176 165.124 316.168 168.068 316.168C171.028 316.168 172.868 315.176 172.868 313.464C172.868 311.736 171.028 310.76 168.068 310.76Z" fill="#333333"/>
<path d="M183.971 306.36H180.403V303.352H183.971V306.36ZM179.091 306.36H176.979V307.416H187.395V306.36H185.283V303.352H187.459V302.296H176.931V303.352H179.091V306.36ZM185.827 314.936H178.595V312.552H185.827V314.936ZM188.691 309.832V308.776H175.715V309.832H181.555V311.512H177.315V315.992H187.107V311.512H182.867V309.832H188.691Z" fill="#333333"/>
<path d="M191.202 303.368V304.456H196.466C196.162 307.848 194.194 310.6 190.53 312.44L191.25 313.464C195.89 311.144 197.762 307.448 197.762 303.368H191.202ZM203.778 307.656H201.474V301.832H200.162V316.184H201.474V308.744H203.778V307.656Z" fill="#333333"/>
<path d="M211.105 308.296H207.041V305.928H211.105V308.296ZM212.385 302.744H211.105V304.904H207.041V302.744H205.745V309.352H212.385V302.744ZM211.729 315.144C209.585 315.144 208.305 314.536 208.305 313.512C208.305 312.488 209.585 311.896 211.729 311.896C213.841 311.896 215.137 312.488 215.137 313.512C215.137 314.536 213.841 315.144 211.729 315.144ZM211.729 310.84C208.801 310.84 206.993 311.816 206.993 313.512C206.993 315.208 208.801 316.184 211.729 316.184C214.641 316.184 216.449 315.208 216.449 313.512C216.449 311.816 214.641 310.84 211.729 310.84ZM216.289 305.448V301.832H214.977V310.472H216.289V306.536H218.417V305.448H216.289Z" fill="#333333"/>
<path d="M224.889 312.76H233.513V316.184H234.825V311.704H224.889V312.76ZM226.457 304.824H233.433V306.488H226.457V304.824ZM230.601 309.24V307.528H234.729V302.168H233.433V303.8H226.457V302.168H225.161V307.528H229.289V309.24H223.433V310.312H236.425V309.24H230.601Z" fill="#333333"/>
<path d="M245.688 310.312V311.288H248.6V312.76H249.912V301.832H248.6V310.312H245.688ZM242.76 303.384C244.12 303.384 245.048 303.992 245.048 304.904C245.048 305.832 244.12 306.44 242.76 306.44C241.4 306.44 240.472 305.832 240.472 304.904C240.472 303.992 241.4 303.384 242.76 303.384ZM242.76 307.416C244.856 307.416 246.296 306.44 246.296 304.904C246.296 303.4 244.856 302.408 242.76 302.408C240.664 302.408 239.224 303.4 239.224 304.904C239.224 306.44 240.664 307.416 242.76 307.416ZM242.248 312.248H243.56V309.416C244.856 309.336 246.184 309.192 247.448 309L247.336 308.056C244.296 308.44 240.744 308.472 238.088 308.472L238.264 309.56C239.448 309.56 240.824 309.544 242.248 309.48V312.248ZM241.448 314.792V311.688H240.136V315.864H250.28V314.792H241.448Z" fill="#333333"/>
<path d="M259.367 303.384C261.623 303.384 263.063 304.056 263.063 305.192C263.063 306.328 261.623 306.984 259.367 306.984C257.111 306.984 255.671 306.328 255.671 305.192C255.671 304.056 257.111 303.384 259.367 303.384ZM259.367 308.04C262.439 308.04 264.407 306.984 264.407 305.192C264.407 303.4 262.439 302.328 259.367 302.328C256.295 302.328 254.327 303.4 254.327 305.192C254.327 306.984 256.295 308.04 259.367 308.04ZM255.863 311.704H254.551V315.864H264.423V314.792H255.863V311.704ZM252.871 309.384V310.44H265.847V309.384H252.871Z" fill="#333333"/>
<path d="M102.696 335.904V337.632H116.04V335.904H102.696ZM104.104 325.6V333.456H114.584V325.6H112.504V327.984H106.2V325.6H104.104ZM106.2 329.632H112.504V331.776H106.2V329.632Z" fill="#333333"/>
<path d="M126.79 330.528H127.974V335.568H129.974V324.64H127.974V328.832H126.79V324.912H124.822V335.28H126.79V330.528ZM124.134 331.568C122.806 331.808 121.606 331.888 120.038 331.904V330.432H123.574V325.84H117.99V327.488H121.542V328.896H118.006V333.568H119.03C121.19 333.568 122.646 333.52 124.31 333.232L124.134 331.568ZM122.166 337.44V334.56H120.054V339.12H130.342V337.44H122.166Z" fill="#333333"/>
<path d="M144.053 331.44H135.797V327.568H143.941V325.856H133.685V333.12H144.053V331.44ZM132.133 335.888V337.616H145.477V335.888H132.133Z" fill="#333333"/>
<path d="M154.452 330.192H152.932C153.236 328.992 153.348 327.68 153.348 326.288H147.604V327.984H151.316C151.268 328.576 151.188 329.136 151.06 329.664L146.868 329.888L147.108 331.648L150.5 331.296C149.812 332.704 148.644 333.92 146.788 335.008L147.956 336.48C150.196 335.184 151.572 333.632 152.356 331.872H154.452V338.72H156.42V324.96H154.452V330.192ZM157.524 324.624V339.36H159.524V324.624H157.524Z" fill="#333333"/>
<path d="M165.603 334.272C164.531 334.272 163.811 333.104 163.811 330.912C163.811 328.736 164.531 327.568 165.603 327.568C166.691 327.568 167.411 328.736 167.411 330.912C167.411 333.104 166.691 334.272 165.603 334.272ZM171.827 324.624V329.936H169.363C169.075 327.28 167.587 325.664 165.603 325.664C163.411 325.664 161.795 327.68 161.795 330.912C161.795 334.16 163.411 336.192 165.603 336.192C167.651 336.192 169.155 334.464 169.379 331.648H171.827V339.408H173.939V324.624H171.827Z" fill="#333333"/>
<path d="M179.697 334.816C178.545 334.816 177.825 333.36 177.825 331.008C177.825 328.704 178.545 327.248 179.697 327.248C180.817 327.248 181.553 328.704 181.553 331.008C181.553 333.36 180.817 334.816 179.697 334.816ZM184.545 330.416H182.737C182.577 327.712 181.425 326.032 179.697 326.032C177.825 326.032 176.625 327.952 176.625 331.008C176.625 334.112 177.825 336.032 179.697 336.032C181.457 336.032 182.625 334.304 182.737 331.488H184.545V338.48H185.793V325.152H184.545V330.416ZM187.393 324.832V339.184H188.641V324.832H187.393Z" fill="#333333"/>
<path d="M196.192 326.064H194.88V328.64C194.88 331.296 193.248 334.064 191.168 335.104L191.968 336.144C193.584 335.28 194.912 333.472 195.536 331.344C196.192 333.36 197.504 335.072 199.136 335.888L199.904 334.848C197.824 333.856 196.192 331.248 196.192 328.64V326.064ZM201.68 324.832V329.696H198.352V330.768H201.68V339.2H202.992V324.832H201.68Z" fill="#333333"/>
<path d="M213.72 334.896C212.424 334.896 211.48 333.968 211.48 332.688C211.48 331.392 212.424 330.464 213.72 330.464C215.032 330.464 215.976 331.392 215.976 332.688C215.976 333.968 215.032 334.896 213.72 334.896ZM213.72 329.376C211.704 329.376 210.248 330.752 210.248 332.688C210.248 334.64 211.704 335.984 213.72 335.984C215.768 335.984 217.224 334.64 217.224 332.688C217.224 330.752 215.768 329.376 213.72 329.376ZM214.36 325.008H213.048V327.136H209.432V328.192H217.896V327.136H214.36V325.008ZM222.92 330.736H220.568V324.848H219.256V339.184H220.568V331.84H222.92V330.736Z" fill="#333333"/>
<path d="M228.487 326.192H227.223V328.928C227.223 331.392 226.039 333.968 224.071 335.12L224.887 336.096C226.311 335.216 227.351 333.6 227.863 331.696C228.375 333.44 229.335 334.96 230.695 335.792L231.447 334.768C229.559 333.616 228.487 331.184 228.487 328.88V326.192ZM232.263 329.984H229.895V331.072H232.263V338.48H233.495V325.152H232.263V329.984ZM235.175 324.832V339.184H236.423V324.832H235.175Z" fill="#333333"/>
<path d="M243.445 332.88C244.037 333.024 244.725 333.104 245.429 333.104C246.149 333.104 246.837 333.024 247.445 332.88V336.256H243.445V332.88ZM245.429 326.768C247.733 326.768 249.397 327.824 249.397 329.424C249.397 331.024 247.733 332.08 245.429 332.08C243.125 332.08 241.477 331.024 241.477 329.424C241.477 327.824 243.125 326.768 245.429 326.768ZM248.757 336.256V332.368C249.941 331.744 250.645 330.72 250.645 329.424C250.645 327.184 248.485 325.744 245.429 325.744C242.389 325.744 240.213 327.184 240.213 329.424C240.213 330.72 240.933 331.76 242.133 332.384V336.256H238.933V337.344H251.973V336.256H248.757Z" fill="#333333"/>
<path d="M254.9 334.464H255.908L256.1 327.68L256.148 326.016H254.66L254.708 327.68L254.9 334.464ZM255.396 338.208C255.988 338.208 256.452 337.76 256.452 337.104C256.452 336.432 255.988 335.968 255.396 335.968C254.82 335.968 254.34 336.432 254.34 337.104C254.34 337.76 254.82 338.208 255.396 338.208Z" fill="#333333"/>
</g>
<defs>
<filter id="filter0_d_3691:9837" x="94.7461" y="301.832" width="173.101" height="39.5762" filterUnits="userSpaceOnUse" color-interpolation-filters="sRGB">
<feFlood flood-opacity="0" result="BackgroundImageFix"/>
<feColorMatrix in="SourceAlpha" type="matrix" values="0 0 0 0 0 0 0 0 0 0 0 0 0 0 0 0 0 0 127 0" result="hardAlpha"/>
<feOffset dx="1" dy="1"/>
<feGaussianBlur stdDeviation="0.5"/>
<feComposite in2="hardAlpha" operator="out"/>
<feColorMatrix type="matrix" values="0 0 0 0 0 0 0 0 0 0 0 0 0 0 0 0 0 0 0.25 0"/>
<feBlend mode="normal" in2="BackgroundImageFix" result="effect1_dropShadow_3691:9837"/>
<feBlend mode="normal" in="SourceGraphic" in2="effect1_dropShadow_3691:9837" result="shape"/>
</filter>
</defs>
</svg>
