<svg width="16" height="16" viewBox="0 0 16 16" fill="none" xmlns="http://www.w3.org/2000/svg">
<circle cx="8" cy="8" r="8" fill="#8E8E92"/>
<path d="M9.57012 5.2929C9.96064 4.90237 10.5938 4.90237 10.9843 5.2929C11.3749 5.68342 11.3749 6.31659 10.9843 6.70711L6.70726 10.9842C6.31673 11.3747 5.68357 11.3747 5.29304 10.9842C4.90252 10.5937 4.90252 9.9605 5.29304 9.56997L9.57012 5.2929Z" fill="white"/>
<path d="M10.9842 9.56997C11.3747 9.96049 11.3747 10.5937 10.9842 10.9842C10.5937 11.3747 9.96049 11.3747 9.56997 10.9842L5.29289 6.70711C4.90237 6.31658 4.90237 5.68342 5.29289 5.29289C5.68342 4.90237 6.31658 4.90237 6.70711 5.29289L10.9842 9.56997Z" fill="white"/>
</svg>
