<svg width="21" height="20" viewBox="0 0 21 20" fill="none" xmlns="http://www.w3.org/2000/svg">
<path d="M5.27287 11.9167L10.319 6.91667C10.4872 6.75001 10.6554 6.66667 10.9077 6.66667C11.16 6.66667 11.3283 6.75001 11.4965 6.91667L16.5426 11.9167C16.879 12.25 16.879 12.75 16.5426 13.0833C16.2062 13.4167 15.7016 13.4167 15.3652 13.0833L10.9077 8.66668L6.4503 13.0833C6.11389 13.4167 5.60928 13.4167 5.27287 13.0833C4.93646 12.75 4.93646 12.25 5.27287 11.9167Z" fill="black"/>
<mask id="mask0" maskUnits="userSpaceOnUse" x="5" y="6" width="12" height="8">
<path d="M5.27287 11.9167L10.319 6.91667C10.4872 6.75001 10.6554 6.66667 10.9077 6.66667C11.16 6.66667 11.3283 6.75001 11.4965 6.91667L16.5426 11.9167C16.879 12.25 16.879 12.75 16.5426 13.0833C16.2062 13.4167 15.7016 13.4167 15.3652 13.0833L10.9077 8.66668L6.4503 13.0833C6.11389 13.4167 5.60928 13.4167 5.27287 13.0833C4.93646 12.75 4.93646 12.25 5.27287 11.9167Z" fill="white"/>
</mask>
<g mask="url(#mask0)">
<rect x="21" y="20" width="20.1846" height="20" transform="rotate(-180 21 20)" fill="#999999"/>
</g>
</svg>
