<svg width="24" height="24" viewBox="0 0 24 24" fill="none" xmlns="http://www.w3.org/2000/svg">
<rect width="24" height="24" rx="12" fill="#FFE812"/>
<path d="M8.73688 16.7386C8.89161 16.0827 9.04282 15.4233 9.21162 14.6969C9.0604 14.5981 8.87754 14.4747 8.69468 14.3548C6.11 12.6551 6.09945 9.47797 8.6771 7.76067C10.7624 6.37132 13.7867 6.42069 15.8157 7.86999C18.193 9.57318 18.1719 12.6199 15.7595 14.2772C14.5252 15.1271 13.1431 15.4162 11.6627 15.3633C11.3567 15.3527 11.0121 15.4656 10.7448 15.6243C10.1119 15.9981 9.51405 16.4283 8.90216 16.8373C8.8459 16.8056 8.78963 16.7738 8.73688 16.7386Z" fill="#3B2725"/>
</svg>
