<svg width="21" height="20" viewBox="0 0 21 20" fill="none" xmlns="http://www.w3.org/2000/svg">
<path d="M16.3986 8.08342L11.3986 13.0834C11.2319 13.2501 11.0653 13.3334 10.8153 13.3334C10.5653 13.3334 10.3986 13.2501 10.2319 13.0834L5.23193 8.08342C4.8986 7.75008 4.8986 7.25008 5.23193 6.91675C5.56527 6.58341 6.06527 6.58341 6.3986 6.91675L10.8153 11.3334L15.2319 6.91675C15.5653 6.58341 16.0653 6.58341 16.3986 6.91675C16.7319 7.25008 16.7319 7.75008 16.3986 8.08342Z" fill="black"/>
<mask id="mask0" maskUnits="userSpaceOnUse" x="4" y="6" width="13" height="8">
<path d="M16.3986 8.08342L11.3986 13.0834C11.2319 13.2501 11.0653 13.3334 10.8153 13.3334C10.5653 13.3334 10.3986 13.2501 10.2319 13.0834L5.23193 8.08342C4.8986 7.75008 4.8986 7.25008 5.23193 6.91675C5.56527 6.58341 6.06527 6.58341 6.3986 6.91675L10.8153 11.3334L15.2319 6.91675C15.5653 6.58341 16.0653 6.58341 16.3986 6.91675C16.7319 7.25008 16.7319 7.75008 16.3986 8.08342Z" fill="white"/>
</mask>
<g mask="url(#mask0)">
<rect x="0.81543" width="20" height="20" fill="#999999"/>
</g>
</svg>
