<svg width="24" height="24" viewBox="0 0 24 24" fill="none" xmlns="http://www.w3.org/2000/svg">
<rect width="24" height="24" rx="12" fill="#262626"/>
<path d="M16.8269 14.4349C16.8269 14.4455 16.8269 14.456 16.8269 14.4666C16.8199 14.4878 16.8128 14.5054 16.8058 14.5266C16.6933 14.8651 16.5491 15.193 16.3803 15.5104C16.1482 15.9477 15.8633 16.3461 15.5539 16.727C15.4167 16.8962 15.2655 17.0478 15.0967 17.1818C14.7908 17.4181 14.4462 17.5239 14.0593 17.4745C13.9152 17.4569 13.7745 17.4252 13.6409 17.3723C13.5037 17.3158 13.3666 17.2594 13.2294 17.1995C13.0395 17.1184 12.8426 17.062 12.6351 17.0408C12.4839 17.0267 12.3292 17.0232 12.178 17.0373C12.0232 17.0514 11.872 17.0831 11.7243 17.1254C11.5591 17.1748 11.4043 17.2453 11.2461 17.3123C11.0316 17.404 10.8135 17.4781 10.5815 17.4922C10.4935 17.4992 10.4091 17.4957 10.3247 17.4851C10.163 17.464 10.0153 17.4075 9.87462 17.3264C9.69527 17.2206 9.54054 17.0866 9.39988 16.935C9.2135 16.7411 9.05174 16.5295 8.89701 16.3109C8.7247 16.0746 8.5559 15.8348 8.41524 15.5809C7.9194 14.6852 7.61346 13.7296 7.52555 12.707C7.50445 12.4778 7.49038 12.2486 7.50796 12.0194C7.52203 11.8113 7.53961 11.6033 7.57478 11.3988C7.63808 11.0497 7.74357 10.7147 7.90534 10.3973C8.14798 9.91772 8.48909 9.52277 8.94273 9.23009C9.36823 8.95857 9.83242 8.81399 10.3388 8.80341C10.5428 8.79989 10.7432 8.83162 10.9401 8.88452C11.1406 8.94094 11.3375 9.01852 11.5309 9.09609C11.6821 9.15604 11.8298 9.21599 11.9881 9.26183C12.1534 9.30767 12.3151 9.31825 12.4804 9.26535C12.6035 9.22657 12.7266 9.18425 12.8496 9.13841C13.0642 9.0573 13.2751 8.96915 13.4932 8.90215C13.7112 8.83515 13.9327 8.78578 14.1613 8.77873C14.4286 8.76815 14.6958 8.78931 14.9561 8.84925C15.5117 8.9762 15.9794 9.2442 16.3557 9.6744C16.4225 9.75198 16.4858 9.83309 16.5456 9.92124C16.528 9.93182 16.5139 9.9424 16.4999 9.95298C16.2783 10.0976 16.0849 10.2703 15.9126 10.4713C15.5293 10.9192 15.3288 11.4375 15.3112 12.0264C15.3042 12.1922 15.3148 12.3544 15.3394 12.5166C15.3851 12.8128 15.4765 13.0878 15.6242 13.3488C15.8528 13.7508 16.1728 14.0611 16.5631 14.2974C16.6405 14.3502 16.7319 14.3996 16.8269 14.4349Z" fill="white"/>
<path d="M14.4463 6C14.4498 6.02821 14.4533 6.05642 14.4568 6.08463C14.4709 6.2151 14.4674 6.34557 14.4498 6.47604C14.39 6.97325 14.1931 7.41756 13.8801 7.80545C13.5566 8.20392 13.1451 8.47192 12.6493 8.60944C12.5227 8.6447 12.3891 8.66233 12.259 8.65528C12.2238 8.65528 12.1851 8.64823 12.1464 8.6447C12.1394 8.60591 12.1324 8.57065 12.1289 8.53539C12.1148 8.40139 12.1253 8.26387 12.15 8.13339C12.259 7.53393 12.5473 7.03319 12.9975 6.6312C13.3104 6.35262 13.6691 6.16221 14.077 6.05642C14.165 6.03526 14.2529 6.01763 14.3443 6.01058C14.3549 6.01058 14.3654 6.00705 14.376 6.00352C14.3971 6 14.4217 6 14.4463 6Z" fill="white"/>
</svg>
