<svg width="20" height="21" viewBox="0 0 20 21" fill="none" xmlns="http://www.w3.org/2000/svg">
<path d="M18.8048 20L18.8048 20L1.19521 20L3.34647 8L16.6535 8L18.8048 20Z" stroke="#8E8F95" stroke-width="2"/>
<path d="M6 5C6 2.79086 7.79086 1 10 1C12.2091 1 14 2.79086 14 5V8H6V5Z" stroke="#8E8F95" stroke-width="2"/>
<mask id="path-3-inside-1" fill="white">
<path fill-rule="evenodd" clip-rule="evenodd" d="M9.99973 13.8239L2.57942 10.6411L1.79102 12.4792L9.99969 16.0001L9.9997 16.0001L9.99973 16.0002L18.2084 12.4792L17.42 10.6411L9.99973 13.8239Z"/>
</mask>
<path fill-rule="evenodd" clip-rule="evenodd" d="M9.99973 13.8239L2.57942 10.6411L1.79102 12.4792L9.99969 16.0001L9.9997 16.0001L9.99973 16.0002L18.2084 12.4792L17.42 10.6411L9.99973 13.8239Z" fill="white"/>
<path d="M2.57942 10.6411L2.97362 9.72209L2.0546 9.32789L1.66039 10.2469L2.57942 10.6411ZM9.99973 13.8239L9.60553 14.743L9.99973 14.9121L10.3939 14.743L9.99973 13.8239ZM1.79102 12.4792L0.871992 12.085L0.47779 13.004L1.39681 13.3982L1.79102 12.4792ZM9.99969 16.0001L9.60548 16.9192L10.5317 17.3165L10.9217 16.3872L9.99969 16.0001ZM9.9997 16.0001L10.916 15.5997L9.98122 13.4604L9.07764 15.6131L9.9997 16.0001ZM9.99973 16.0002L9.08339 16.4006L9.48111 17.3107L10.3939 16.9192L9.99973 16.0002ZM18.2084 12.4792L18.6026 13.3982L19.5216 13.004L19.1274 12.085L18.2084 12.4792ZM17.42 10.6411L18.339 10.2469L17.9448 9.32791L17.0258 9.72211L17.42 10.6411ZM2.18522 11.5601L9.60553 14.743L10.3939 12.9049L2.97362 9.72209L2.18522 11.5601ZM2.71004 12.8734L3.49844 11.0353L1.66039 10.2469L0.871992 12.085L2.71004 12.8734ZM10.3939 15.0811L2.18522 11.5601L1.39681 13.3982L9.60548 16.9192L10.3939 15.0811ZM9.07764 15.6131L9.07762 15.6131L10.9217 16.3872L10.9218 16.3871L9.07764 15.6131ZM9.08337 16.4005L9.08339 16.4006L10.9161 15.5997L10.916 15.5997L9.08337 16.4005ZM10.3939 16.9192L18.6026 13.3982L17.8142 11.5602L9.60553 15.0811L10.3939 16.9192ZM19.1274 12.085L18.339 10.2469L16.501 11.0353L17.2894 12.8734L19.1274 12.085ZM17.0258 9.72211L9.60553 12.9049L10.3939 14.743L17.8142 11.5602L17.0258 9.72211Z" fill="#8E8F95" mask="url(#path-3-inside-1)"/>
</svg>

