<svg width="45" height="54" viewBox="0 0 45 54" fill="none" xmlns="http://www.w3.org/2000/svg">
<path d="M17.67 47.56H16.38C16.7 46.08 16.7 45.03 16.7 44.09V43.26H10.51V44.1H15.7C15.7 44.46 15.7 44.82 15.68 45.22L10.23 45.41L10.35 46.28L15.62 46.02C15.58 46.49 15.49 46.99 15.36 47.56H9.51V48.41H13.07V51.77H14.11V48.41H17.67V47.56ZM20.7692 49.08H19.7292V51.6H25.9592V50.76H20.7692V49.08ZM21.7392 43.95H23.8192V45.76H21.7392V43.95ZM23.2992 47.55V46.59H26.0692V45.76H24.8492V43.95H26.1192V43.12H19.4292V43.95H20.7092V45.76H19.4792V46.59H22.2592V47.55H18.6892V48.39H26.8792V47.55H23.2992ZM33.2484 43.63H31.0984V42.67H30.0684V43.63H27.9184V44.45H33.2484V43.63ZM29.3784 46.44C29.3784 45.92 29.8584 45.6 30.5784 45.6C31.2984 45.6 31.7884 45.92 31.7884 46.44C31.7884 46.97 31.2984 47.29 30.5784 47.29C29.8584 47.29 29.3784 46.97 29.3784 46.44ZM32.7684 46.44C32.7684 45.47 31.8884 44.82 30.5784 44.82C29.2784 44.82 28.3884 45.47 28.3884 46.44C28.3884 47.42 29.2784 48.06 30.5784 48.06C31.8884 48.06 32.7684 47.42 32.7684 46.44ZM30.2084 49.45H33.9484V50.84H30.2084V49.45ZM29.1884 51.66H34.9584V48.64H29.1884V51.66ZM36.2384 45.06H34.9584V42.74H33.9284V48.18H34.9584V45.91H36.2384V45.06Z" fill="black"/>
<path fill-rule="evenodd" clip-rule="evenodd" d="M7.15625 0C3.5664 0 0.65625 2.91015 0.65625 6.5V7.74069C0.917313 7.71416 1.18181 7.7006 1.44919 7.7006C2.21263 7.7006 2.95251 7.81117 3.65625 8.01849V6.5C3.65625 4.567 5.22325 3 7.15625 3H38.1592C40.0922 3 41.6592 4.567 41.6592 6.5V27.5033C41.6592 29.4363 40.0922 31.0033 38.1592 31.0033H7.15625C5.22325 31.0033 3.65625 29.4363 3.65625 27.5033V25.9847C2.95251 26.192 2.21263 26.3026 1.44919 26.3026C1.18181 26.3026 0.917313 26.289 0.65625 26.2625V27.5033C0.65625 31.0931 3.5664 34.0033 7.15625 34.0033H38.1592C41.749 34.0033 44.6592 31.0931 44.6592 27.5033V6.5C44.6592 2.91015 41.749 0 38.1592 0H7.15625Z" fill="#333333"/>
<path fill-rule="evenodd" clip-rule="evenodd" d="M0.600098 25.9023C0.600098 26.4833 1.09632 26.9474 1.66518 26.8291C5.84024 25.9614 9.0001 21.8907 9.0001 16.9999C9.0001 12.1092 5.84024 8.03849 1.66518 7.17074C1.09632 7.05251 0.600098 7.5166 0.600098 8.09762V9.15197C0.600098 9.65717 0.981021 10.0738 1.46469 10.2197C3.91665 10.9594 6.0001 13.5098 6.0001 16.9999C6.0001 20.4901 3.91665 23.0405 1.46469 23.7802C0.981021 23.9261 0.600098 24.3427 0.600098 24.8479V25.9023Z" fill="#333333"/>
<rect x="14.1743" y="0.725708" width="2.12134" height="6.97574" fill="#333333"/>
<rect x="14.1743" y="26.3026" width="2.12134" height="6.97574" fill="#333333"/>
<rect x="14.1743" y="12.3513" width="2.12134" height="9.30099" fill="#333333"/>
</svg>
