<svg width="26" height="25" viewBox="0 0 26 25" fill="none" xmlns="http://www.w3.org/2000/svg">
<path d="M1 17.8604V22.9999C1 23.5522 1.44772 23.9999 2 23.9999H24C24.5523 23.9999 25 23.5522 25 22.9999V17.8604" stroke="black" stroke-width="2" stroke-linecap="round" stroke-linejoin="round"/>
<path d="M12.8643 16.335C13.2548 16.7255 13.888 16.7255 14.2785 16.335L20.6425 9.97105C21.033 9.58053 21.033 8.94736 20.6425 8.55684C20.252 8.16631 19.6188 8.16631 19.2283 8.55684L13.5714 14.2137L7.91456 8.55684C7.52403 8.16631 6.89087 8.16631 6.50034 8.55684C6.10982 8.94736 6.10982 9.58053 6.50034 9.97105L12.8643 16.335ZM12.5714 -3.82475e-08L12.5714 15.6279L14.5714 15.6279L14.5714 3.82475e-08L12.5714 -3.82475e-08Z" fill="black"/>
</svg>
