<svg width="120" height="15" viewBox="0 0 120 15" fill="none" xmlns="http://www.w3.org/2000/svg">
<path d="M84.3359 2.31107V4.66271C83.2308 3.70225 82.0857 3.22316 80.9051 3.22316C79.6025 3.22316 78.5062 3.70916 77.6141 4.68114C76.7176 5.64621 76.2671 6.8278 76.2671 8.22589C76.2671 9.60555 76.7154 10.771 77.6141 11.72C78.5107 12.6689 79.6114 13.1434 80.914 13.1434C81.5864 13.1434 82.1589 13.0305 82.6294 12.8025C82.8913 12.6896 83.1642 12.5353 83.4461 12.3418C83.7279 12.1484 84.0252 11.9157 84.3359 11.644V14.0371C83.2419 14.6797 82.0924 14.9998 80.8874 14.9998C79.0765 14.9998 77.5298 14.3434 76.2493 13.0328C74.9733 11.7084 74.3364 10.1146 74.3364 8.24431C74.3364 6.56983 74.869 5.075 75.9364 3.76213C77.2502 2.15444 78.95 1.3506 81.0338 1.3506C82.1745 1.34829 83.273 1.67075 84.3359 2.31107Z" fill="#212B62"/>
<path d="M95.6244 11.5656H90.1986L88.785 14.7602H86.7256L92.9969 0.779297L99.0463 14.7602H96.9537L95.6244 11.5656ZM94.8432 9.69759L92.9636 5.22463L90.993 9.69759H94.8432Z" fill="#212B62"/>
<path d="M106.051 9.15415L109.976 14.7603H107.637L104.016 9.37527H103.672V14.7603H101.759V1.604H104C105.676 1.604 106.885 1.93107 107.628 2.5829C108.45 3.31073 108.86 4.2689 108.86 5.462C108.86 6.39252 108.603 7.19406 108.088 7.86432C107.573 8.53687 106.894 8.96528 106.051 9.15415ZM103.672 7.6455H104.28C106.091 7.6455 106.996 6.92688 106.996 5.48964C106.996 4.14452 106.115 3.46966 104.353 3.46966H103.672V7.6455Z" fill="#212B62"/>
<path d="M120 3.46966H114.918V6.62976H119.851V8.49541H114.918V12.8947H120V14.7603H113.005V1.604H120V3.46966Z" fill="#212B62"/>
<path d="M0 14.0501V0.893799H1.90403C2.75175 0.893799 3.42859 0.962897 3.93234 1.09879C4.44052 1.23468 4.87104 1.46501 5.22166 1.78977C5.57673 2.12605 5.85856 2.54295 6.06716 3.04276C6.2802 3.54948 6.38672 4.06081 6.38672 4.57674C6.38672 5.51878 6.03831 6.31802 5.34372 6.96985C6.01612 7.20939 6.5465 7.62628 6.93707 8.22283C7.33208 8.81478 7.52736 9.50115 7.52736 10.2843C7.52736 11.3115 7.17674 12.1822 6.4777 12.8916C6.05607 13.3292 5.58339 13.6332 5.05745 13.8037C4.48269 13.9672 3.76146 14.0501 2.89821 14.0501H0ZM1.91291 6.54374H2.51208C3.22443 6.54374 3.74371 6.38021 4.07658 6.05314C4.40724 5.72608 4.57367 5.24469 4.57367 4.60899C4.57367 3.98941 4.40502 3.51954 4.06549 3.19938C3.72596 2.87923 3.2333 2.718 2.58753 2.718H1.91291V6.54374ZM1.91291 12.1845H3.09572C3.96119 12.1845 4.59586 12.0094 4.99975 11.657C5.42583 11.277 5.64108 10.7933 5.64108 10.2083C5.64108 9.63935 5.43692 9.16257 5.02638 8.77792C4.62693 8.39788 3.91236 8.20671 2.8849 8.20671H1.91291V12.1845Z" fill="#212B62"/>
<path d="M15.361 8.44395L19.2844 14.0501H16.9454L13.3238 8.66506H12.9798V14.0501H11.0669V0.893799H13.3082C14.9837 0.893799 16.1931 1.22086 16.9366 1.87269C17.7576 2.60053 18.1682 3.55869 18.1682 4.75179C18.1682 5.68232 17.9108 6.48386 17.3959 7.15411C16.8811 7.82667 16.202 8.25508 15.361 8.44395ZM12.9798 6.9353H13.5879C15.3987 6.9353 16.3041 6.21668 16.3041 4.77943C16.3041 3.43432 15.4231 2.75945 13.6611 2.75945H12.9798V6.9353Z" fill="#212B62"/>
<path d="M29.7611 10.8553H24.3353L22.9217 14.05H20.8623L27.1336 0.0690918L33.183 14.05H31.0904L29.7611 10.8553ZM28.98 8.98739L27.1003 4.51442L25.1297 8.98739H28.98Z" fill="#212B62"/>
<path d="M35.8945 14.05V0L45.1373 10.0354V0.893672H47.0502V14.8492L37.8074 4.83919V14.05H35.8945Z" fill="#212B62"/>
<path d="M51.2134 14.0501V0.893799H53.8719C55.1479 0.893799 56.1532 1.02509 56.8922 1.28536C57.6866 1.54102 58.4057 1.97634 59.0514 2.58901C60.3585 3.82818 61.0132 5.45429 61.0132 7.47196C61.0132 9.49424 60.3319 11.1296 58.9693 12.3803C58.2858 13.0044 57.569 13.4398 56.819 13.6839C56.1177 13.9281 55.1257 14.0501 53.8386 14.0501H51.2134ZM53.1263 12.1845H53.9873C54.8461 12.1845 55.5607 12.09 56.1288 11.9035C56.6969 11.7054 57.2117 11.3898 57.6711 10.9568C58.612 10.0655 59.0825 8.9046 59.0825 7.47196C59.0825 6.03011 58.6165 4.86005 57.6866 3.96177C56.85 3.16023 55.6162 2.75945 53.9851 2.75945H53.1241V12.1845H53.1263Z" fill="#212B62"/>
</svg>
