<svg width="18" height="18" viewBox="0 0 18 18" fill="none" xmlns="http://www.w3.org/2000/svg">
<mask id="path-1-inside-1" fill="white">
<path fill-rule="evenodd" clip-rule="evenodd" d="M18 8L8.5 0L0 8V16C0 17.1046 0.89543 18 2 18H16C17.1046 18 18 17.1046 18 16V8Z"/>
</mask>
<path d="M8.5 0L9.78827 -1.52982L8.42608 -2.67693L7.12927 -1.4564L8.5 0ZM18 8H20V7.06953L19.2883 6.47018L18 8ZM0 8L-1.37073 6.5436L-2 7.13585V8H0ZM7.21173 1.52982L16.7117 9.52982L19.2883 6.47018L9.78827 -1.52982L7.21173 1.52982ZM1.37073 9.4564L9.87073 1.4564L7.12927 -1.4564L-1.37073 6.5436L1.37073 9.4564ZM2 16V8H-2V16H2ZM2 16H2H-2C-2 18.2091 -0.209139 20 2 20V16ZM16 16H2V20H16V16ZM16 16V20C18.2091 20 20 18.2091 20 16H16ZM16 8V16H20V8H16Z" fill="#8E8F95" mask="url(#path-1-inside-1)"/>
<path d="M9 13C9.55228 13 10 13.4477 10 14L10 17L8 17L8 14C8 13.4477 8.44772 13 9 13Z" stroke="#8E8F95" stroke-width="2"/>
</svg>
