<svg width="48" height="48" viewBox="0 0 48 48" fill="none" xmlns="http://www.w3.org/2000/svg">
<path d="M23.9997 28C23.6042 28 23.2175 28.1173 22.8886 28.3371C22.5597 28.5568 22.3033 28.8692 22.152 29.2346C22.0006 29.6001 21.961 30.0022 22.0382 30.3902C22.1153 30.7781 22.3058 31.1345 22.5855 31.4142C22.8652 31.6939 23.2216 31.8844 23.6096 31.9616C23.9975 32.0387 24.3996 31.9991 24.7651 31.8478C25.1306 31.6964 25.4429 31.44 25.6627 31.1111C25.8824 30.7822 25.9997 30.3956 25.9997 30C25.9997 29.4696 25.789 28.9609 25.4139 28.5858C25.0389 28.2107 24.5302 28 23.9997 28ZM23.9997 4C21.3733 4 18.7726 4.51732 16.3461 5.52241C13.9196 6.5275 11.7148 8.00069 9.8576 9.85786C6.10687 13.6086 3.99973 18.6957 3.99973 24C3.98225 28.6183 5.58132 33.0971 8.51973 36.66L4.51973 40.66C4.24222 40.9412 4.05422 41.2984 3.97948 41.6864C3.90473 42.0743 3.94657 42.4758 4.09973 42.84C4.26585 43.1999 4.53514 43.5022 4.87343 43.7088C5.21171 43.9153 5.60373 44.0167 5.99973 44H23.9997C29.3041 44 34.3911 41.8929 38.1419 38.1421C41.8926 34.3914 43.9997 29.3043 43.9997 24C43.9997 18.6957 41.8926 13.6086 38.1419 9.85786C34.3911 6.10714 29.3041 4 23.9997 4V4ZM23.9997 40H10.8197L12.6797 38.14C12.8687 37.9548 13.019 37.7339 13.122 37.4901C13.225 37.2464 13.2786 36.9846 13.2797 36.72C13.2722 36.1925 13.0566 35.6893 12.6797 35.32C10.0609 32.7041 8.43008 29.2611 8.06511 25.5776C7.70015 21.8941 8.62362 18.198 10.6782 15.119C12.7328 12.0401 15.7913 9.76872 19.3328 8.69195C22.8742 7.61517 26.6795 7.79961 30.1002 9.21383C33.5209 10.628 36.3454 13.1845 38.0926 16.4478C39.8398 19.711 40.4015 23.4791 39.682 27.11C38.9625 30.7409 37.0063 34.0101 34.1468 36.3605C31.2873 38.7109 27.7013 39.9971 23.9997 40V40ZM23.9997 16C23.4693 16 22.9606 16.2107 22.5855 16.5858C22.2104 16.9609 21.9997 17.4696 21.9997 18V24C21.9997 24.5304 22.2104 25.0391 22.5855 25.4142C22.9606 25.7893 23.4693 26 23.9997 26C24.5302 26 25.0389 25.7893 25.4139 25.4142C25.789 25.0391 25.9997 24.5304 25.9997 24V18C25.9997 17.4696 25.789 16.9609 25.4139 16.5858C25.0389 16.2107 24.5302 16 23.9997 16Z" fill="#8E8F95"/>
</svg>
