<svg width="31" height="29" viewBox="0 0 31 29" fill="none" xmlns="http://www.w3.org/2000/svg">
<path d="M22.7656 0.000770171C23.9059 0.000770171 24.9756 0.232591 25.9746 0.696234C26.9736 1.15988 27.8465 1.78526 28.5933 2.57237C29.34 3.35948 29.9253 4.29216 30.3491 5.3704C30.7729 6.44864 30.9899 7.59157 31 8.7992C31 9.97448 30.7931 11.1012 30.3794 12.1795C29.9657 13.2577 29.3703 14.2066 28.5933 15.026L15.5 29L2.40674 15.026C1.63981 14.2066 1.04948 13.2577 0.635742 12.1795C0.222005 11.1012 0.0100911 9.97448 0 8.7992C0 7.59157 0.211914 6.45403 0.635742 5.38657C1.05957 4.31912 1.6499 3.38644 2.40674 2.58854C3.16357 1.79065 4.03646 1.15988 5.02539 0.696234C6.01432 0.232591 7.08398 0.000770171 8.23438 0.000770171C9.07194 0.000770171 9.81868 0.103203 10.4746 0.308068C11.1305 0.512934 11.736 0.793276 12.291 1.14909C12.846 1.50491 13.3809 1.9416 13.8955 2.45915C14.4102 2.97671 14.945 3.532 15.5 4.12503C16.055 3.52122 16.5848 2.96593 17.0894 2.45915C17.5939 1.95238 18.1287 1.52109 18.6938 1.16527C19.259 0.809449 19.8695 0.523716 20.5254 0.308068C21.1813 0.0924205 21.9281 -0.0100122 22.7656 0.000770171ZM27.2158 13.5542C27.8112 12.9181 28.2653 12.1903 28.5781 11.3708C28.891 10.5513 29.0474 9.69414 29.0474 8.7992C29.0474 7.86113 28.8859 6.98776 28.563 6.17908C28.2401 5.3704 27.7961 4.66415 27.231 4.06034C26.6659 3.45653 25.9998 2.98749 25.2329 2.65324C24.466 2.31898 23.6436 2.14647 22.7656 2.13568C21.918 2.13568 21.1662 2.27585 20.5103 2.5562C19.8543 2.83654 19.2489 3.21392 18.6938 3.68835C18.1388 4.16277 17.609 4.68572 17.1045 5.25718C16.5999 5.82865 16.0651 6.42707 15.5 7.05245C14.9551 6.4702 14.4253 5.88256 13.9106 5.28953C13.396 4.6965 12.8612 4.16277 12.3062 3.68835C11.7511 3.21392 11.1406 2.82576 10.4746 2.52385C9.80859 2.22194 9.06185 2.07099 8.23438 2.07099C7.36654 2.07099 6.54915 2.24351 5.78223 2.58854C5.0153 2.93358 4.34928 3.4134 3.78418 4.02799C3.21908 4.64259 2.77002 5.35962 2.43701 6.17908C2.104 6.99854 1.9375 7.87191 1.9375 8.7992C1.9375 9.69414 2.09391 10.5513 2.40674 11.3708C2.71956 12.1903 3.17871 12.9181 3.78418 13.5542L15.5 26.0726L27.2158 13.5542Z" fill="#FF6060"/>
</svg>
