<svg width="31" height="29" viewBox="0 0 31 29" fill="none" xmlns="http://www.w3.org/2000/svg">
<path d="M22.7656 0.000770171C23.9059 0.000770171 24.9756 0.232591 25.9746 0.696234C26.9736 1.15988 27.8465 1.78526 28.5933 2.57237C29.34 3.35948 29.9253 4.29216 30.3491 5.3704C30.7729 6.44864 30.9899 7.59157 31 8.7992C31 9.97448 30.7931 11.1012 30.3794 12.1795C29.9657 13.2577 29.3703 14.2066 28.5933 15.026L15.5 29L2.40674 15.026C1.63981 14.2066 1.04948 13.2577 0.635742 12.1795C0.222005 11.1012 0.0100911 9.97448 0 8.7992C0 7.59157 0.211914 6.45403 0.635742 5.38657C1.05957 4.31912 1.6499 3.38644 2.40674 2.58854C3.16357 1.79065 4.03646 1.15988 5.02539 0.696234C6.01432 0.232591 7.08398 0.000770171 8.23438 0.000770171C9.07194 0.000770171 9.81868 0.103203 10.4746 0.308068C11.1305 0.512934 11.736 0.793276 12.291 1.14909C12.846 1.50491 13.3809 1.9416 13.8955 2.45915C14.4102 2.97671 14.945 3.532 15.5 4.12503C16.055 3.52122 16.5848 2.96593 17.0894 2.45915C17.5939 1.95238 18.1287 1.52109 18.6938 1.16527C19.259 0.809449 19.8695 0.523716 20.5254 0.308068C21.1813 0.0924204 21.9281 -0.0100122 22.7656 0.000770171Z" fill="#FF6060"/>
</svg>
