<svg width="114" height="24" viewBox="0 0 114 24" fill="none" xmlns="http://www.w3.org/2000/svg">
<path d="M25.072 7.24H23.44V16.664H24.416C26.192 16.664 27.776 16.584 29.6 16.216L29.392 14.84C27.872 15.128 26.512 15.224 25.072 15.256V7.24ZM30.528 10.504H27.456V11.848H30.528V19.544H32.064V6.072H30.528V10.504ZM33.584 5.768V20.232H35.168V5.768H33.584ZM47.7588 5.768V20.264H49.4228V5.768H47.7588ZM41.7268 6.84C39.5828 6.84 38.0148 8.824 38.0148 11.928C38.0148 15.064 39.5828 17.032 41.7268 17.032C43.8868 17.032 45.4548 15.064 45.4548 11.928C45.4548 8.824 43.8868 6.84 41.7268 6.84ZM41.7268 8.328C42.9908 8.328 43.8708 9.688 43.8708 11.928C43.8708 14.2 42.9908 15.56 41.7268 15.56C40.4788 15.56 39.5988 14.2 39.5988 11.928C39.5988 9.688 40.4788 8.328 41.7268 8.328ZM57.9495 15.384H54.4295V11.848H57.9495V15.384ZM62.5895 5.752V11.016H59.5655V6.92H57.9495V10.552H54.4295V6.904H52.7975V16.728H59.5655V12.344H62.5895V20.264H64.2535V5.768L62.5895 5.752ZM77.91 17.176V14.712H82.422V13.384H73.766V11.368H82.102V6.792H72.118V8.12H80.47V10.056H72.15V14.712H76.262V17.176H70.566V18.536H83.654V17.176H77.91ZM95.0288 8.776C95.0288 10.648 95.0288 12.776 94.4688 15.624L96.1328 15.8C96.6768 12.744 96.6768 10.712 96.6768 8.776V7.224H86.6768V8.552H95.0288V8.776ZM85.2848 16.856V18.216H98.3568V16.856H85.2848ZM111.908 5.784H110.26V16.28H111.908V5.784ZM101.892 10.36C101.892 9.032 102.836 8.168 104.116 8.168C105.38 8.168 106.34 9.032 106.34 10.36C106.34 11.672 105.38 12.552 104.116 12.552C102.836 12.552 101.892 11.672 101.892 10.36ZM107.94 10.36C107.94 8.248 106.292 6.744 104.116 6.744C101.94 6.744 100.276 8.248 100.276 10.36C100.276 12.456 101.94 13.976 104.116 13.976C106.292 13.976 107.94 12.456 107.94 10.36ZM104.132 18.616V15.224H102.468V19.96H112.324V18.616H104.132Z" fill="white"/>
<path d="M8.13709 12.4234L3.6885 6H0V18H3.86291V11.5766L8.3115 18H12V6H8.13709V12.4234Z" fill="white"/>
</svg>
