<svg width="117" height="24" viewBox="0 0 117 24" fill="none" xmlns="http://www.w3.org/2000/svg">
<path d="M28.564 15.608C27.588 15.608 26.98 14.328 26.98 12.04C26.98 9.752 27.588 8.456 28.564 8.456C29.54 8.456 30.148 9.752 30.148 12.04C30.148 14.328 29.54 15.608 28.564 15.608ZM28.564 6.904C26.692 6.904 25.46 8.856 25.46 12.04C25.46 15.192 26.692 17.16 28.564 17.16C30.436 17.16 31.668 15.192 31.668 12.04C31.668 8.856 30.436 6.904 28.564 6.904ZM36.084 5.784V11.416H34.436V6.056H32.884V19.544H34.436V12.76H36.084V20.216H37.652V5.784H36.084ZM48.2108 9.8H44.8828V7.464H48.2108V9.8ZM43.2348 9.8H41.2668V11.048H51.8108V9.8H49.8588V7.464H51.8908V6.2H41.1868V7.464H43.2348V9.8ZM43.2348 17.784H51.4588V14.424H41.5707V15.64H49.8428V16.648H41.6028V20.104H51.8748V18.872H43.2348V17.784ZM40.0188 12.056V13.368H53.1068V12.056H40.0188ZM62.0975 17.176V14.712H66.6095V13.384H57.9535V11.368H66.2895V6.792H56.3055V8.12H64.6575V10.056H56.3375V14.712H60.4495V17.176H54.7535V18.536H67.8415V17.176H62.0975ZM80.41 17.176V14.712H84.922V13.384H76.266V11.368H84.602V6.792H74.618V8.12H82.97V10.056H74.65V14.712H78.762V17.176H73.066V18.536H86.154V17.176H80.41ZM97.5288 8.776C97.5288 10.648 97.5288 12.776 96.9688 15.624L98.6328 15.8C99.1768 12.744 99.1768 10.712 99.1768 8.776V7.224H89.1768V8.552H97.5288V8.776ZM87.7848 16.856V18.216H100.857V16.856H87.7848ZM114.408 5.784H112.76V16.28H114.408V5.784ZM104.392 10.36C104.392 9.032 105.336 8.168 106.616 8.168C107.88 8.168 108.84 9.032 108.84 10.36C108.84 11.672 107.88 12.552 106.616 12.552C105.336 12.552 104.392 11.672 104.392 10.36ZM110.44 10.36C110.44 8.248 108.792 6.744 106.616 6.744C104.44 6.744 102.776 8.248 102.776 10.36C102.776 12.456 104.44 13.976 106.616 13.976C108.792 13.976 110.44 12.456 110.44 10.36ZM106.632 18.616V15.224H104.968V19.96H114.824V18.616H106.632Z" fill="white"/>
<path d="M14.6038 16.207C14.6038 16.2236 14.6038 16.2402 14.6038 16.2567C14.5928 16.2899 14.5818 16.3175 14.5708 16.3506C14.3946 16.8806 14.1688 17.3941 13.9045 17.8911C13.5411 18.5757 13.0951 19.1996 12.6106 19.7959C12.3959 20.0609 12.1591 20.2984 11.8948 20.5082C11.4158 20.8781 10.8761 21.0437 10.2705 20.9664C10.0447 20.9388 9.82447 20.8892 9.61523 20.8063C9.40049 20.718 9.18575 20.6296 8.97101 20.5358C8.67368 20.4088 8.36533 20.3205 8.04047 20.2873C7.8037 20.2652 7.56143 20.2597 7.32467 20.2818C7.0824 20.3039 6.84563 20.3536 6.61437 20.4198C6.35558 20.4971 6.11331 20.6076 5.86553 20.7125C5.52965 20.856 5.18827 20.972 4.82486 20.9941C4.68721 21.0051 4.55506 20.9996 4.42291 20.983C4.16963 20.9499 3.93837 20.8615 3.71812 20.7346C3.43731 20.5689 3.19504 20.3591 2.97479 20.1217C2.68296 19.818 2.42968 19.4867 2.18741 19.1444C1.9176 18.7745 1.65331 18.399 1.43306 18.0015C0.656692 16.5991 0.177655 15.1028 0.0400008 13.5016C0.00696379 13.1427 -0.0150605 12.7838 0.0124704 12.4249C0.0344951 12.0991 0.0620252 11.7734 0.117087 11.4531C0.216198 10.9065 0.381382 10.382 0.634666 9.88508C1.01459 9.13417 1.54869 8.51578 2.25899 8.05751C2.92523 7.63236 3.65205 7.40599 4.44494 7.38942C4.7643 7.3839 5.07815 7.43359 5.38649 7.51641C5.70035 7.60476 6.00869 7.72622 6.31153 7.84769C6.5483 7.94156 6.77956 8.03542 7.02733 8.1072C7.28612 8.17898 7.53941 8.19554 7.7982 8.11272C7.99091 8.05198 8.18363 7.98573 8.37635 7.91395C8.71222 7.78696 9.04259 7.64893 9.38397 7.54402C9.72536 7.43911 10.0722 7.36181 10.4301 7.35077C10.8486 7.33421 11.2671 7.36734 11.6745 7.4612C12.5445 7.65997 13.2768 8.07959 13.866 8.7532C13.9706 8.87467 14.0697 9.00166 14.1633 9.13969C14.1358 9.15626 14.1138 9.17282 14.0918 9.18939C13.7449 9.41576 13.442 9.68631 13.1722 10.001C12.572 10.7022 12.2582 11.5139 12.2307 12.4359C12.2197 12.6955 12.2362 12.9494 12.2747 13.2034C12.3463 13.6672 12.4895 14.0979 12.7207 14.5065C13.0786 15.1359 13.5797 15.6218 14.1909 15.9917C14.312 16.0745 14.4552 16.1518 14.6038 16.207Z" fill="white"/>
<path d="M10.8762 3C10.8817 3.04417 10.8872 3.08834 10.8927 3.13251C10.9148 3.3368 10.9093 3.54109 10.8817 3.74538C10.7881 4.5239 10.4798 5.21959 9.98973 5.82694C9.48317 6.45085 8.83894 6.87047 8.06257 7.08581C7.86435 7.14102 7.65511 7.16863 7.45139 7.15758C7.39632 7.15758 7.33576 7.14654 7.27519 7.14102C7.26418 7.08029 7.25316 7.02507 7.24766 6.96986C7.22563 6.76005 7.24215 6.54471 7.28069 6.34042C7.45139 5.40179 7.90289 4.61776 8.60768 3.98832C9.09773 3.55214 9.65936 3.25398 10.2981 3.08834C10.4357 3.05521 10.5734 3.02761 10.7165 3.01656C10.7331 3.01656 10.7496 3.01104 10.7661 3.00552C10.7991 3 10.8377 3 10.8762 3Z" fill="white"/>
</svg>
