<svg width="124" height="24" viewBox="0 0 124 24" fill="none" xmlns="http://www.w3.org/2000/svg">
<path d="M1.91404 20C1.91084 17.9096 1.91084 15.8017 1.91404 13.7078C1.91404 13.6095 1.89164 13.5779 1.79882 13.5779C1.24509 13.5814 0.691361 13.5814 0.134435 13.5814C4.30205e-06 13.5814 0 13.5814 0 13.4373C0 12.5415 0 11.6456 0 10.7462C0 10.6022 1.17329e-06 10.5987 0.131231 10.5987C0.684957 10.5987 1.23869 10.5951 1.79561 10.5987C1.88523 10.5987 1.91404 10.5776 1.91404 10.4722C1.90764 9.95574 1.91083 9.43579 1.91083 8.91934C1.91083 8.25886 2.05167 7.63351 2.35254 7.05734C2.98948 5.83826 3.9497 5.14616 5.22359 5.02671C5.78692 4.97401 6.35985 5.01617 6.92638 5.01266C6.9968 5.01266 6.9968 5.06184 6.9968 5.11454C6.9968 6.02797 6.9968 6.94492 7 7.85836C7 7.96024 6.96479 7.98483 6.87837 7.98483C6.42707 7.98132 5.97576 7.98132 5.52446 7.98132C4.99954 7.98132 4.61866 8.39588 4.61866 8.97204C4.61866 9.45686 4.61866 9.94169 4.61866 10.4265C4.61866 10.5987 4.58985 10.5916 4.76589 10.5916C5.46045 10.5916 6.155 10.5916 6.84636 10.5916C6.88797 10.5916 6.93278 10.5916 6.98719 10.5916C6.98719 10.6549 6.99039 10.697 6.98719 10.7392C6.95839 11.0659 6.92957 11.3926 6.90077 11.7159C6.84956 12.285 6.79834 12.8541 6.75033 13.4233C6.73753 13.5673 6.74074 13.5708 6.60951 13.5708C5.98537 13.5708 5.36122 13.5743 4.73708 13.5673C4.64106 13.5673 4.61545 13.5954 4.61545 13.7008C4.61865 15.7947 4.61866 17.8921 4.61866 19.9859H1.91404V20Z" fill="white"/>
<path d="M20.488 8.856H21.944V15.336C21.448 15.368 20.968 15.384 20.488 15.4V8.856ZM23.448 8.856H24.52V7.528H17.944V8.856H18.984V15.432C18.504 15.432 18.056 15.432 17.656 15.432L17.848 16.792C19.672 16.792 22.648 16.728 24.904 16.28L24.792 15.08C24.376 15.144 23.912 15.192 23.448 15.24V8.856ZM25.832 11.176H24.12V12.632H25.832V19.512H27.384V6.104H25.832V11.176ZM28.664 5.784V20.232H30.248V5.784H28.664ZM42.7588 5.768V20.264H44.4228V5.768H42.7588ZM36.7268 6.84C34.5828 6.84 33.0148 8.824 33.0148 11.928C33.0148 15.064 34.5828 17.032 36.7268 17.032C38.8868 17.032 40.4548 15.064 40.4548 11.928C40.4548 8.824 38.8868 6.84 36.7268 6.84ZM36.7268 8.328C37.9908 8.328 38.8708 9.688 38.8708 11.928C38.8708 14.2 37.9908 15.56 36.7268 15.56C35.4788 15.56 34.5988 14.2 34.5988 11.928C34.5988 9.688 35.4788 8.328 36.7268 8.328ZM59.7815 12.84C56.9335 12.328 54.6135 10.104 54.6135 7.8V6.712H52.8695V7.8C52.8695 10.088 50.5495 12.312 47.7015 12.84L48.4055 14.2C50.7575 13.72 52.7895 12.216 53.7335 10.232C54.6775 12.216 56.7095 13.72 59.0615 14.2L59.7815 12.84ZM47.2535 17.016V18.376H60.3415V17.016H47.2535ZM71.7163 10.296H65.2843V8.872H71.7163V10.296ZM73.3483 6.136H71.7163V7.608H65.2843V6.136H63.6523V11.608H73.3483V6.136ZM75.0443 14.104V12.776H61.9403V14.104H67.6523V15.576H63.4123V16.888H71.7803V20.232H73.4283V15.576H69.3003V14.104H75.0443ZM87.6288 17.176V14.712H92.1408V13.384H83.4848V11.368H91.8208V6.792H81.8368V8.12H90.1888V10.056H81.8688V14.712H85.9808V17.176H80.2848V18.536H93.3728V17.176H87.6288ZM104.748 8.776C104.748 10.648 104.748 12.776 104.188 15.624L105.852 15.8C106.396 12.744 106.396 10.712 106.396 8.776V7.224H96.3955V8.552H104.748V8.776ZM95.0035 16.856V18.216H108.076V16.856H95.0035ZM121.626 5.784H119.978V16.28H121.626V5.784ZM111.61 10.36C111.61 9.032 112.554 8.168 113.834 8.168C115.098 8.168 116.058 9.032 116.058 10.36C116.058 11.672 115.098 12.552 113.834 12.552C112.554 12.552 111.61 11.672 111.61 10.36ZM117.658 10.36C117.658 8.248 116.01 6.744 113.834 6.744C111.658 6.744 109.994 8.248 109.994 10.36C109.994 12.456 111.658 13.976 113.834 13.976C116.01 13.976 117.658 12.456 117.658 10.36ZM113.85 18.616V15.224H112.186V19.96H122.042V18.616H113.85Z" fill="white"/>
</svg>
