<svg width="133" height="24" viewBox="0 0 133 24" fill="none" xmlns="http://www.w3.org/2000/svg">
<path d="M36.54 5.768V20.264H38.204V5.768H36.54ZM30.508 6.84C28.364 6.84 26.796 8.824 26.796 11.928C26.796 15.064 28.364 17.032 30.508 17.032C32.668 17.032 34.236 15.064 34.236 11.928C34.236 8.824 32.668 6.84 30.508 6.84ZM30.508 8.328C31.772 8.328 32.652 9.688 32.652 11.928C32.652 14.2 31.772 15.56 30.508 15.56C29.26 15.56 28.38 14.2 28.38 11.928C28.38 9.688 29.26 8.328 30.508 8.328ZM45.5468 15.16H43.0508V8.68H45.5468V15.16ZM48.9068 11.144H47.0828V7.368H41.5148V16.472H47.0828V12.488H48.9068V19.544H50.4428V6.056H48.9068V11.144ZM51.8028 5.784V20.216H53.3708V5.784H51.8028ZM67.6575 5.768H66.0095V13.112H67.6575V5.768ZM57.6255 9.512C57.6255 8.36 58.5535 7.608 59.8015 7.608C61.0655 7.608 62.0095 8.36 62.0095 9.512C62.0095 10.664 61.0655 11.416 59.8015 11.416C58.5535 11.416 57.6255 10.664 57.6255 9.512ZM63.6095 9.512C63.6095 7.608 61.9935 6.248 59.8015 6.248C57.6255 6.248 56.0255 7.608 56.0255 9.512C56.0255 11.416 57.6255 12.76 59.8015 12.76C61.9935 12.76 63.6095 11.416 63.6095 9.512ZM59.8335 18.76V17.48H67.6575V13.768H58.1855V15.064H66.0255V16.264H58.2175V20.056H68.0895V18.76H59.8335ZM83.17 7.464H79.634V5.816H77.986V7.464H74.434V8.792H83.17V7.464ZM76.85 12.184C76.85 11.304 77.65 10.76 78.818 10.76C79.97 10.76 80.77 11.304 80.77 12.184C80.77 13.08 79.97 13.624 78.818 13.624C77.65 13.624 76.85 13.08 76.85 12.184ZM79.634 14.824C81.266 14.568 82.338 13.592 82.338 12.184C82.338 10.568 80.898 9.496 78.818 9.496C76.722 9.496 75.282 10.568 75.282 12.184C75.282 13.576 76.354 14.568 77.986 14.824V16.232C76.626 16.28 75.298 16.28 74.146 16.28L74.354 17.64C76.978 17.64 80.402 17.592 83.586 17.048L83.474 15.848C82.242 16.024 80.93 16.104 79.634 16.184V14.824ZM84.29 5.768V20.232H85.954V5.768H84.29ZM96.2728 14.264V15.416H99.1048V16.76H100.753V5.768H99.1048V14.264H96.2728ZM93.3928 7.544C94.5768 7.544 95.3928 8.056 95.3928 8.872C95.3928 9.688 94.5768 10.2 93.3928 10.2C92.1927 10.2 91.3768 9.688 91.3768 8.872C91.3768 8.056 92.1927 7.544 93.3928 7.544ZM93.3928 11.416C95.5048 11.416 96.9608 10.408 96.9608 8.872C96.9608 7.336 95.5048 6.328 93.3928 6.328C91.2648 6.328 89.8088 7.336 89.8088 8.872C89.8088 10.408 91.2648 11.416 93.3928 11.416ZM92.7368 16.296H94.3848V13.512C95.6168 13.432 96.8808 13.304 98.0968 13.096L97.9688 11.912C94.9128 12.296 91.3608 12.328 88.7048 12.344L88.9128 13.688C90.0648 13.688 91.3608 13.672 92.7368 13.608V16.296ZM92.3048 18.616V15.688H90.6568V19.96H101.089V18.616H92.3048ZM104.208 7.304V8.648H109.264C108.928 11.976 107.024 14.52 103.488 16.328L104.4 17.592C109.12 15.208 110.911 11.496 110.911 7.304H104.208ZM116.88 11.48H114.688V5.768H113.04V20.216H114.688V12.856H116.88V11.48ZM128.478 5.784V13.544H130.126V5.784H128.478ZM120.686 14.216V20.056H130.126V14.216H128.494V15.816H122.318V14.216H120.686ZM122.318 17.096H128.494V18.728H122.318V17.096ZM122.334 6.44C120.126 6.44 118.494 7.816 118.494 9.8C118.494 11.784 120.126 13.16 122.334 13.16C124.542 13.16 126.158 11.784 126.158 9.8C126.158 7.816 124.542 6.44 122.334 6.44ZM122.334 7.8C123.63 7.8 124.558 8.6 124.558 9.8C124.558 11.016 123.63 11.8 122.334 11.8C121.022 11.8 120.11 11.016 120.11 9.8C120.11 8.6 121.022 7.8 122.334 7.8Z" fill="black"/>
<path fill-rule="evenodd" clip-rule="evenodd" d="M1.48681 7.5C1.2476 7.5 1 7.71674 1 8.04985V16.566C1 16.8999 1.24612 17.1159 1.48681 17.1159H14.5132C14.7524 17.1159 15 16.8991 15 16.566V8.04985C15 7.71822 14.7517 7.5 14.5132 7.5H1.48681ZM0 8.04985C0 7.22226 0.639229 6.5 1.48681 6.5H14.5132C15.3614 6.5 16 7.22512 16 8.04985V16.566C16 17.3936 15.3608 18.1159 14.5132 18.1159H1.48681C0.636363 18.1159 0 17.3929 0 16.566V8.04985Z" fill="black"/>
<path fill-rule="evenodd" clip-rule="evenodd" d="M7.99993 12.5688L14.9757 6.82715L15.6112 7.59924L8.32529 13.5962C8.23579 13.6699 8.12346 13.7102 8.00754 13.7102H7.99232C7.8764 13.7102 7.76408 13.6699 7.67457 13.5962L0.388672 7.59924L1.02418 6.82715L7.99993 12.5688Z" fill="black"/>
<path fill-rule="evenodd" clip-rule="evenodd" d="M7.3876 12.8937L0.984184 17.3714L0.411133 16.5518L6.81455 12.0742L7.3876 12.8937Z" fill="black"/>
<path fill-rule="evenodd" clip-rule="evenodd" d="M9.18278 12.0742L15.5884 16.5518L15.0155 17.3714L8.60986 12.8938L9.18278 12.0742Z" fill="black"/>
</svg>
