<svg width="117" height="24" viewBox="0 0 117 24" fill="none" xmlns="http://www.w3.org/2000/svg">
<path d="M26.1413 7.224V8.568H31.0853C31.0213 9.368 30.8933 10.12 30.7013 10.824L25.4053 11.16L25.6293 12.584L30.2053 12.136C29.3573 13.912 27.8373 15.416 25.3093 16.68L26.2053 17.96C31.4533 15.32 32.7173 11.544 32.7173 7.224H26.1413ZM38.6373 11.48H36.4453V5.768H34.7973V20.216H36.4453V12.856H38.6373V11.48ZM40.8601 7.224V8.568H45.8041C45.7401 9.368 45.6121 10.12 45.4201 10.824L40.1241 11.16L40.3481 12.584L44.9241 12.136C44.0761 13.912 42.5561 15.416 40.0281 16.68L40.9241 17.96C46.1721 15.32 47.4361 11.544 47.4361 7.224H40.8601ZM53.3561 11.48H51.1641V5.768H49.5161V20.216H51.1641V12.856H53.3561V11.48ZM57.5148 10.504C57.5148 8.936 59.0668 7.944 61.2268 7.944C63.3708 7.944 64.9228 8.936 64.9228 10.504C64.9228 12.072 63.3708 13.064 61.2268 13.064C59.0668 13.064 57.5148 12.072 57.5148 10.504ZM62.0428 17.112V14.36C64.6828 14.12 66.5388 12.648 66.5388 10.504C66.5388 8.152 64.2828 6.632 61.2268 6.632C58.1548 6.632 55.9148 8.152 55.9148 10.504C55.9148 12.648 57.7548 14.104 60.3948 14.344V17.112H54.6988V18.456H67.7868V17.112H62.0428ZM80.3553 17.176V14.712H84.8673V13.384H76.2113V11.368H84.5473V6.792H74.5633V8.12H82.9153V10.056H74.5953V14.712H78.7073V17.176H73.0113V18.536H86.0993V17.176H80.3553ZM97.4741 8.776C97.4741 10.648 97.4741 12.776 96.9141 15.624L98.5781 15.8C99.1221 12.744 99.1221 10.712 99.1221 8.776V7.224H89.1221V8.552H97.4741V8.776ZM87.7301 16.856V18.216H100.802V16.856H87.7301ZM114.353 5.784H112.705V16.28H114.353V5.784ZM104.337 10.36C104.337 9.032 105.281 8.168 106.561 8.168C107.825 8.168 108.785 9.032 108.785 10.36C108.785 11.672 107.825 12.552 106.561 12.552C105.281 12.552 104.337 11.672 104.337 10.36ZM110.385 10.36C110.385 8.248 108.737 6.744 106.561 6.744C104.385 6.744 102.721 8.248 102.721 10.36C102.721 12.456 104.385 13.976 106.561 13.976C108.737 13.976 110.385 12.456 110.385 10.36ZM106.577 18.616V15.224H104.913V19.96H114.769V18.616H106.577Z" fill="#333333"/>
<path d="M2.64918 19.3181C2.85548 18.4436 3.05709 17.5644 3.28215 16.5958C3.08054 16.4642 2.83672 16.2996 2.59291 16.1397C-0.85334 13.8735 -0.8674 9.63729 2.56947 7.34756C5.34991 5.49509 9.38224 5.56091 12.0877 7.49331C15.2573 9.76423 15.2291 13.8265 12.0126 16.0363C10.3669 17.1694 8.5242 17.555 6.55023 17.4844C6.1423 17.4703 5.6828 17.6208 5.32646 17.8324C4.48248 18.3307 3.68539 18.9043 2.86955 19.4497C2.79453 19.4074 2.71951 19.3651 2.64918 19.3181Z" fill="#3B2725"/>
</svg>
