<svg width="32" height="32" viewBox="0 0 32 32" fill="none" xmlns="http://www.w3.org/2000/svg">
<rect y="0.000488281" width="32" height="32" rx="4" fill="#262626"/>
<path d="M22.4359 19.2472C22.4359 19.2613 22.4359 19.2754 22.4359 19.2895C22.4265 19.3177 22.4171 19.3412 22.4077 19.3694C22.2577 19.8208 22.0654 20.258 21.8404 20.6812C21.5309 21.2642 21.1511 21.7955 20.7385 22.3033C20.5557 22.529 20.354 22.7311 20.129 22.9098C19.7211 23.2248 19.2616 23.3659 18.7458 23.3C18.5536 23.2765 18.366 23.2342 18.1878 23.1637C18.005 23.0885 17.8221 23.0132 17.6392 22.9333C17.3861 22.8252 17.1235 22.7499 16.8468 22.7217C16.6452 22.7029 16.4389 22.6982 16.2373 22.717C16.031 22.7358 15.8294 22.7781 15.6325 22.8346C15.4121 22.9004 15.2058 22.9944 14.9948 23.0838C14.7088 23.206 14.4181 23.3047 14.1086 23.3235C13.9914 23.3329 13.8789 23.3282 13.7663 23.3141C13.5506 23.2859 13.3537 23.2107 13.1662 23.1026C12.927 22.9615 12.7207 22.7828 12.5332 22.5807C12.2847 22.3221 12.069 22.04 11.8627 21.7485C11.6329 21.4335 11.4079 21.1137 11.2203 20.7752C10.5592 19.581 10.1513 18.3068 10.0341 16.9433C10.0059 16.6377 9.98718 16.3321 10.0106 16.0265C10.0294 15.7491 10.0528 15.4717 10.0997 15.199C10.1841 14.7335 10.3248 14.2869 10.5404 13.8637C10.864 13.2243 11.3188 12.6977 11.9236 12.3075C12.491 11.9454 13.1099 11.7527 13.7851 11.7385C14.057 11.7338 14.3243 11.7762 14.5869 11.8467C14.8541 11.9219 15.1167 12.0253 15.3746 12.1288C15.5762 12.2087 15.7731 12.2886 15.9841 12.3498C16.2045 12.4109 16.4202 12.425 16.6405 12.3545C16.8046 12.3027 16.9688 12.2463 17.1329 12.1852C17.4189 12.0771 17.7002 11.9595 17.9909 11.8702C18.2816 11.7809 18.577 11.715 18.8818 11.7056C19.2381 11.6915 19.5945 11.7197 19.9414 11.7997C20.6823 11.9689 21.3059 12.3263 21.8076 12.8999C21.8966 13.0033 21.981 13.1114 22.0608 13.229C22.0373 13.2431 22.0186 13.2572 21.9998 13.2713C21.7044 13.4641 21.4465 13.6945 21.2168 13.9625C20.7057 14.5596 20.4384 15.2507 20.415 16.0359C20.4056 16.2569 20.4197 16.4732 20.4525 16.6894C20.5135 17.0844 20.6354 17.4511 20.8323 17.799C21.1371 18.335 21.5637 18.7488 22.0842 19.0638C22.1874 19.1343 22.3093 19.2001 22.4359 19.2472Z" fill="white"/>
<path d="M19.2614 8.00049C19.2661 8.0381 19.2708 8.07572 19.2755 8.11333C19.2942 8.28729 19.2895 8.46126 19.2661 8.63522C19.1864 9.29816 18.9238 9.89057 18.5065 10.4078C18.0751 10.9391 17.5265 11.2964 16.8654 11.4797C16.6966 11.5268 16.5185 11.5503 16.345 11.5409C16.2981 11.5409 16.2465 11.5315 16.1949 11.5268C16.1856 11.475 16.1762 11.428 16.1715 11.381C16.1527 11.2023 16.1668 11.019 16.1996 10.845C16.345 10.0457 16.7294 9.37809 17.3296 8.84209C17.7469 8.47066 18.2252 8.21677 18.7691 8.07572C18.8863 8.04751 19.0035 8.024 19.1254 8.01459C19.1395 8.01459 19.1535 8.00989 19.1676 8.00519C19.1957 8.00049 19.2286 8.00049 19.2614 8.00049Z" fill="white"/>
</svg>
