<svg width="32" height="32" viewBox="0 0 32 32" fill="none" xmlns="http://www.w3.org/2000/svg">
<rect width="32" height="32" rx="4" fill="#FFE812"/>
<path d="M11.6492 22.3181C11.8555 21.4436 12.0571 20.5644 12.2822 19.5958C12.0805 19.4642 11.8367 19.2996 11.5929 19.1397C8.14666 16.8735 8.1326 12.6373 11.5695 10.3476C14.3499 8.49509 18.3822 8.56091 21.0877 10.4933C24.2573 12.7642 24.2291 16.8265 21.0126 19.0363C19.3669 20.1694 17.5242 20.555 15.5502 20.4844C15.1423 20.4703 14.6828 20.6208 14.3265 20.8324C13.4825 21.3307 12.6854 21.9043 11.8695 22.4497C11.7945 22.4074 11.7195 22.3651 11.6492 22.3181Z" fill="#3B2725"/>
</svg>
