<svg width="32" height="32" viewBox="0 0 32 32" fill="none" xmlns="http://www.w3.org/2000/svg">
<rect width="32" height="32" rx="4" fill="#374C85"/>
<path d="M14.914 23C14.9108 20.9096 14.9108 18.8017 14.914 16.7078C14.914 16.6095 14.8916 16.5779 14.7988 16.5779C14.2451 16.5814 13.6914 16.5814 13.1344 16.5814C13 16.5814 13 16.5814 13 16.4373C13 15.5415 13 14.6456 13 13.7462C13 13.6022 13 13.5987 13.1312 13.5987C13.685 13.5987 14.2387 13.5951 14.7956 13.5987C14.8852 13.5987 14.914 13.5776 14.914 13.4722C14.9076 12.9557 14.9108 12.4358 14.9108 11.9193C14.9108 11.2589 15.0517 10.6335 15.3525 10.0573C15.9895 8.83826 16.9497 8.14616 18.2236 8.02671C18.7869 7.97401 19.3599 8.01617 19.9264 8.01266C19.9968 8.01266 19.9968 8.06184 19.9968 8.11454C19.9968 9.02797 19.9968 9.94492 20 10.8584C20 10.9602 19.9648 10.9848 19.8784 10.9848C19.4271 10.9813 18.9758 10.9813 18.5245 10.9813C17.9995 10.9813 17.6187 11.3959 17.6187 11.972C17.6187 12.4569 17.6187 12.9417 17.6187 13.4265C17.6187 13.5987 17.5898 13.5916 17.7659 13.5916C18.4604 13.5916 19.155 13.5916 19.8464 13.5916C19.888 13.5916 19.9328 13.5916 19.9872 13.5916C19.9872 13.6549 19.9904 13.697 19.9872 13.7392C19.9584 14.0659 19.9296 14.3926 19.9008 14.7159C19.8496 15.285 19.7983 15.8541 19.7503 16.4233C19.7375 16.5673 19.7407 16.5708 19.6095 16.5708C18.9854 16.5708 18.3612 16.5743 17.7371 16.5673C17.6411 16.5673 17.6155 16.5954 17.6155 16.7008C17.6187 18.7947 17.6187 20.8921 17.6187 22.9859H14.914V23Z" fill="white"/>
</svg>
