<svg width="16" height="20" viewBox="0 0 16 20" fill="none" xmlns="http://www.w3.org/2000/svg">
<path d="M8 19.5C9.1 19.5 10 18.6231 10 17.5513H6C6 18.6231 6.9 19.5 8 19.5ZM14 13.6538V8.78205C14 5.79077 12.37 3.28667 9.5 2.6241V1.96154C9.5 1.15282 8.83 0.5 8 0.5C7.17 0.5 6.5 1.15282 6.5 1.96154V2.6241C3.64 3.28667 2 5.78103 2 8.78205V13.6538L0 15.6026V16.5769H16V15.6026L14 13.6538ZM12 14.6282H4V8.78205C4 6.36564 5.51 4.39744 8 4.39744C10.49 4.39744 12 6.36564 12 8.78205V14.6282Z" fill="black"/>
</svg>
