<svg width="36" height="59" viewBox="0 0 36 59" fill="none" xmlns="http://www.w3.org/2000/svg">
<path d="M5.94 48.78H4.91V54.49H5.51C6.45 54.49 7.49 54.44 8.7 54.22L8.59 53.34C7.61 53.52 6.74 53.59 5.94 53.61V48.78ZM11.21 47.74V51.33H10.14V47.92H9.17V56.32H10.14V52.18H11.21V56.77H12.19V47.74H11.21ZM18.5592 50.01V50.85H20.1592V53.12H21.1892V47.74H20.1592V50.01H18.5592ZM19.0792 52.02C17.7292 51.55 16.9592 50.43 16.9592 49.3V49.18H18.8392V48.35H14.0092V49.18H15.9192V49.31C15.9192 50.55 15.1092 51.75 13.7092 52.25L14.2392 53.07C15.3092 52.69 16.0692 51.89 16.4692 50.9C16.8492 51.77 17.5692 52.48 18.5692 52.83L19.0792 52.02ZM18.1892 55.98C16.8992 55.98 16.1692 55.66 16.1692 55.07C16.1692 54.48 16.8992 54.16 18.1892 54.16C19.4592 54.16 20.1992 54.48 20.1992 55.07C20.1992 55.66 19.4592 55.98 18.1892 55.98ZM18.1892 53.36C16.2992 53.36 15.1392 54 15.1392 55.07C15.1392 56.15 16.2992 56.78 18.1892 56.78C20.0692 56.78 21.2292 56.15 21.2292 55.07C21.2292 54 20.0692 53.36 18.1892 53.36ZM24.8484 50.69H29.1284V52.17H24.8484V50.69ZM27.4984 54.82V53H30.1484V48.34H29.1284V49.86H24.8484V48.34H23.8284V53H26.4684V54.82H22.9084V55.67H31.0884V54.82H27.4984Z" fill="black"/>
<rect x="1.5" y="1.5" width="33" height="41" rx="5.5" stroke="#333333" stroke-width="3"/>
<rect x="7.99976" y="11.7333" width="2.66667" height="2.93333" fill="#333333"/>
<rect x="14" y="11.7333" width="14" height="2.93333" fill="#333333"/>
<rect x="14" y="20.5333" width="14" height="2.93333" fill="#333333"/>
<rect x="14" y="29.3334" width="14" height="2.93333" fill="#333333"/>
<rect x="7.99976" y="20.5333" width="2.66667" height="2.93333" fill="#333333"/>
<rect x="7.99976" y="29.3334" width="2.66667" height="2.93333" fill="#333333"/>
</svg>
