<svg width="18" height="19" viewBox="0 0 18 19" fill="none" xmlns="http://www.w3.org/2000/svg">
<path fill-rule="evenodd" clip-rule="evenodd" d="M9 10.1431C5.17734 10.1431 2 13.4033 2 17.524C2 18.0763 1.55228 18.524 1 18.524C0.447715 18.524 0 18.0763 0 17.524C0 12.3874 3.98611 8.14307 9 8.14307C14.0139 8.14307 18 12.3874 18 17.524C18 18.0763 17.5523 18.524 17 18.524C16.4477 18.524 16 18.0763 16 17.524C16 13.4033 12.8227 10.1431 9 10.1431Z" fill="#8E8F95"/>
<path fill-rule="evenodd" clip-rule="evenodd" d="M9.00023 7.90476C10.6308 7.90476 11.9526 6.58294 11.9526 4.95238C11.9526 3.32183 10.6308 2 9.00023 2C7.36968 2 6.04785 3.32183 6.04785 4.95238C6.04785 6.58294 7.36968 7.90476 9.00023 7.90476ZM9.00023 9.90476C11.7354 9.90476 13.9526 7.68751 13.9526 4.95238C13.9526 2.21726 11.7354 0 9.00023 0C6.26511 0 4.04785 2.21726 4.04785 4.95238C4.04785 7.68751 6.26511 9.90476 9.00023 9.90476Z" fill="#8E8F95"/>
</svg>
