<svg width="50" height="50" viewBox="0 0 50 50" fill="none" xmlns="http://www.w3.org/2000/svg">
<circle cx="25.0001" cy="21.7838" r="7.78378" stroke="#212B62" stroke-width="2"/>
<path fill-rule="evenodd" clip-rule="evenodd" d="M25 30.7297C17.7158 30.7297 11.8108 36.6347 11.8108 43.9189C11.8108 44.4712 11.3631 44.9189 10.8108 44.9189C10.2585 44.9189 9.81079 44.4712 9.81079 43.9189C9.81079 35.5302 16.6112 28.7297 25 28.7297C33.3887 28.7297 40.1892 35.5302 40.1892 43.9189C40.1892 44.4712 39.7415 44.9189 39.1892 44.9189C38.6369 44.9189 38.1892 44.4712 38.1892 43.9189C38.1892 36.6347 32.2842 30.7297 25 30.7297Z" fill="#212B62"/>
<path fill-rule="evenodd" clip-rule="evenodd" d="M25 48C37.7025 48 48 37.7025 48 25C48 12.2975 37.7025 2 25 2C12.2975 2 2 12.2975 2 25C2 37.7025 12.2975 48 25 48ZM25 50C38.8071 50 50 38.8071 50 25C50 11.1929 38.8071 0 25 0C11.1929 0 0 11.1929 0 25C0 38.8071 11.1929 50 25 50Z" fill="#212B62"/>
</svg>
