<svg width="46" height="57" viewBox="0 0 46 57" fill="none" xmlns="http://www.w3.org/2000/svg">
<path d="M11.54 47.38H13.62V50.16H11.54V47.38ZM13.09 52.85V50.99H15.95V50.16H14.64V47.38H15.97V46.55H9.18V47.38H10.51V50.16H9.21V50.99H12.06V52.85H8.5V53.7H16.7V52.85H13.09ZM25.1492 45.74H24.1192V52.3H25.1492V45.74ZM18.8892 48.6C18.8892 47.77 19.4792 47.23 20.2792 47.23C21.0692 47.23 21.6692 47.77 21.6692 48.6C21.6692 49.42 21.0692 49.97 20.2792 49.97C19.4792 49.97 18.8892 49.42 18.8892 48.6ZM22.6692 48.6C22.6692 47.28 21.6392 46.34 20.2792 46.34C18.9192 46.34 17.8792 47.28 17.8792 48.6C17.8792 49.91 18.9192 50.86 20.2792 50.86C21.6392 50.86 22.6692 49.91 22.6692 48.6ZM20.2892 53.76V51.64H19.2492V54.6H25.4092V53.76H20.2892ZM34.1784 50.51H28.9684V49.27H33.9084V48.46H28.9684V47.3H34.1084V46.47H27.9184V51.34H34.1784V50.51ZM26.9084 52.82V53.66H35.0984V52.82H26.9084Z" fill="black"/>
<rect width="26.2128" height="3.63636" fill="#333333"/>
<rect y="6.36365" width="26.2128" height="3.63636" fill="#333333"/>
<path fill-rule="evenodd" clip-rule="evenodd" d="M18.6566 12.7272H0V16.3635H15.7365C16.4933 15.0231 17.4816 13.7981 18.6566 12.7272Z" fill="#333333"/>
<path fill-rule="evenodd" clip-rule="evenodd" d="M15.2824 19.0908H0V22.7272H13.7031C13.8795 21.4351 14.4282 20.2091 15.2824 19.0908Z" fill="#333333"/>
<path fill-rule="evenodd" clip-rule="evenodd" d="M13.7031 25.4546H0V29.091H15.2824C14.4282 27.9727 13.8795 26.7466 13.7031 25.4546Z" fill="#333333"/>
<path fill-rule="evenodd" clip-rule="evenodd" d="M15.5328 31.8181H0V35.4545H18.0451C17.0337 34.3625 16.1848 33.1399 15.5328 31.8181Z" fill="#333333"/>
<ellipse cx="29.0212" cy="25.4546" rx="14.9787" ry="14.5454" stroke="#333333" stroke-width="4"/>
<path d="M23.5794 16.5818H29.4874C30.9248 16.5818 32.1661 16.8338 33.2114 17.3378C34.2568 17.8231 35.0688 18.5231 35.6474 19.4378C36.2261 20.3524 36.5154 21.4351 36.5154 22.6858C36.5154 24.5524 35.8808 26.0364 34.6114 27.1378C33.3421 28.2204 31.6341 28.7618 29.4874 28.7618H26.8834V36.1818H23.5794V16.5818ZM29.4874 19.4938H26.8834V25.8498H29.4874C30.6261 25.8498 31.5408 25.5884 32.2314 25.0658C32.9221 24.5244 33.2674 23.7311 33.2674 22.6858C33.2674 21.6404 32.9221 20.8471 32.2314 20.3058C31.5408 19.7644 30.6261 19.4938 29.4874 19.4938Z" fill="#333333"/>
</svg>
