<svg width="19" height="19" viewBox="0 0 19 19" fill="none" xmlns="http://www.w3.org/2000/svg">
<path d="M0 17H18V19H0V17Z" fill="#8E8F95"/>
<mask id="path-2-inside-1" fill="white">
<path fill-rule="evenodd" clip-rule="evenodd" d="M18.0514 5.65685L12.3945 0L2.8283 9.56623L2.82837 9.5663L2.82837 15.2231L8.48522 15.2231V15.223L18.0514 5.65685Z"/>
</mask>
<path d="M12.3945 0L13.8087 -1.41421L12.3945 -2.82843L10.9803 -1.41421L12.3945 0ZM18.0514 5.65685L19.4656 7.07107L20.8798 5.65685L19.4656 4.24264L18.0514 5.65685ZM2.8283 9.56623L1.41409 8.15202L-0.00012569 9.56623L1.41409 10.9804L2.8283 9.56623ZM2.82837 9.5663L4.82837 9.5663L4.82837 8.73787L4.24258 8.15208L2.82837 9.5663ZM2.82837 15.2231L0.828369 15.2231L0.82837 17.2231L2.82837 17.2231L2.82837 15.2231ZM8.48522 15.2231V17.2231L10.4852 17.2231L10.4852 15.2231H8.48522ZM8.48522 15.223L7.07101 13.8088L6.48522 14.3946L6.48522 15.223L8.48522 15.223ZM10.9803 1.41421L16.6372 7.07107L19.4656 4.24264L13.8087 -1.41421L10.9803 1.41421ZM4.24251 10.9804L13.8087 1.41421L10.9803 -1.41421L1.41409 8.15202L4.24251 10.9804ZM4.24258 8.15208L4.24251 8.15202L1.41409 10.9804L1.41416 10.9805L4.24258 8.15208ZM4.82837 15.2231L4.82837 9.5663L0.828369 9.5663L0.828369 15.2231L4.82837 15.2231ZM8.48522 13.2231L2.82837 13.2231L2.82837 17.2231H8.48522L8.48522 13.2231ZM6.48522 15.223V15.2231L10.4852 15.2231V15.223L6.48522 15.223ZM16.6372 4.24264L7.07101 13.8088L9.89944 16.6372L19.4656 7.07107L16.6372 4.24264Z" fill="#8E8F95" mask="url(#path-2-inside-1)"/>
</svg>
