<svg width="19" height="18" viewBox="0 0 19 18" fill="none" xmlns="http://www.w3.org/2000/svg">
<path fill-rule="evenodd" clip-rule="evenodd" d="M0 1C0 0.447715 0.447715 0 1 0H3.5V0.196112L4.04101 3H17.7875C18.4161 3 18.8889 3.57322 18.7692 4.19039L17.0237 13.1904C16.9325 13.6605 16.5209 14 16.042 14H4.95806C4.47918 14 4.06752 13.6605 3.97635 13.1904L2.81747 7.21492L2.81738 7.21494L2.79994 7.12453L2.23089 4.19039C2.22592 4.16476 2.22197 4.1392 2.21902 4.11376L1.81117 2H1C0.447715 2 0 1.55228 0 1ZM4.76357 6.74483L5.78275 12H15.2173L16.5749 5H4.4269L4.76357 6.74483Z" fill="#8E8F95"/>
<circle cx="5.5" cy="16.5" r="1.5" fill="#8E8F95"/>
<circle cx="15.5" cy="16.5" r="1.5" fill="#8E8F95"/>
</svg>
