<svg xmlns="http://www.w3.org/2000/svg" viewBox="0 0 199.25 39.76"><defs><style>.cls-1{fill:#212b62;}</style></defs><g id="Layer_2" data-name="Layer 2"><g id="Layer_1-2" data-name="Layer 1"><path class="cls-1" d="M112.6,31.37h1.08v7.35h3.72v.89h-4.8Z"/><path class="cls-1" d="M104.18,36.21V31.37h1.08v4.87c0,2,.87,2.61,2,2.61s2-.62,2-2.61V31.37h1v4.84c0,2.65-1.33,3.55-3.07,3.55S104.18,38.86,104.18,36.21Z"/><path class="cls-1" d="M95.1,35.46c0-2.64,1.5-4.25,3.64-4.25s3.64,1.61,3.64,4.25-1.5,4.3-3.64,4.3S95.1,38.11,95.1,35.46Zm6.17,0c0-2.07-1-3.34-2.53-3.34s-2.54,1.27-2.54,3.34,1,3.39,2.54,3.39S101.27,37.52,101.27,35.46Z"/><path class="cls-1" d="M88.75,31.37h4.92v.88H89.83v2.58h3.24v.89H89.83v3h4v.89h-5Z"/><path class="cls-1" d="M81.19,38.53l.64-.7a3.45,3.45,0,0,0,2.36,1c1.12,0,1.79-.54,1.79-1.35s-.61-1.11-1.41-1.46l-1.24-.52a2.35,2.35,0,0,1-1.73-2.11c0-1.28,1.14-2.2,2.69-2.2a3.56,3.56,0,0,1,2.51,1l-.57.66a2.81,2.81,0,0,0-1.94-.78c-1,0-1.6.48-1.6,1.22s.75,1.1,1.41,1.37l1.22.51c1,.41,1.76,1,1.76,2.2s-1.12,2.34-2.9,2.34A4.13,4.13,0,0,1,81.19,38.53Z"/><path class="cls-1" d="M199.25,4.46h-8.82V9.61H199v3h-8.56v7.17h8.82v3H187.12V1.42h12.13Z"/><path class="cls-1" d="M175.05,13.72l6.81,9.12H177.8l-6.28-8.76h-.6v8.76H167.6V1.42h3.89q4.37,0,6.3,1.6a5.78,5.78,0,0,1,2.13,4.68,6,6,0,0,1-4.87,6Zm-4.13-2.46H172q4.71,0,4.71-3.51,0-3.28-4.58-3.29h-1.19Z"/><path class="cls-1" d="M157,17.64h-9.41l-2.45,5.2h-3.57L152.4.08l10.5,22.76h-3.63Zm-1.35-3-3.26-7.28-3.42,7.28Z"/><path class="cls-1" d="M137.38,2.57V6.4a9.35,9.35,0,0,0-5.95-2.34,7.68,7.68,0,0,0-5.71,2.37,7.88,7.88,0,0,0-2.34,5.77,7.69,7.69,0,0,0,2.34,5.69,7.78,7.78,0,0,0,5.72,2.32,7.21,7.21,0,0,0,3-.55,9.83,9.83,0,0,0,1.42-.75c.48-.32,1-.7,1.54-1.14v3.9a12.27,12.27,0,0,1-6,1.56,11.2,11.2,0,0,1-8.05-3.2,10.5,10.5,0,0,1-3.32-7.8,10.83,10.83,0,0,1,2.78-7.29A11.18,11.18,0,0,1,131.65,1,11.52,11.52,0,0,1,137.38,2.57Z"/><path class="cls-1" d="M88.85,22.88V1.46h4.61a17.42,17.42,0,0,1,5.24.63,9.92,9.92,0,0,1,3.75,2.13,10.13,10.13,0,0,1,3.4,8,10,10,0,0,1-3.55,8,10.5,10.5,0,0,1-3.73,2.12,17.25,17.25,0,0,1-5.17.6Zm3.32-3h1.49a13,13,0,0,0,3.72-.46,7.63,7.63,0,0,0,2.67-1.54,7.24,7.24,0,0,0,2.45-5.67,7.37,7.37,0,0,0-2.42-5.72c-1.45-1.3-3.59-2-6.42-2h-1.5V19.84Z"/><path class="cls-1" d="M62.27,22.88V0l16,16.34V1.46h3.32V24.18l-16-16.3v15Z"/><path class="cls-1" d="M51.63,17.67H42.22l-2.45,5.21H36.19L47.07.11l10.5,22.77H53.94Zm-1.35-3L47,7.35,43.6,14.63Z"/><path class="cls-1" d="M26.65,13.75l6.81,9.13H29.4l-6.29-8.77h-.59v8.77H19.2V1.46h3.89q4.35,0,6.29,1.59a5.77,5.77,0,0,1,2.14,4.69,6,6,0,0,1-4.87,6Zm-4.13-2.46h1.05c3.14,0,4.72-1.17,4.72-3.51S26.76,4.49,23.7,4.49H22.52Z"/><path class="cls-1" d="M0,22.88V1.46H3.3a15,15,0,0,1,3.52.33A5.44,5.44,0,0,1,9.06,2.91a6.14,6.14,0,0,1,1.47,2,6.07,6.07,0,0,1,.55,2.5,5,5,0,0,1-1.81,3.9,5.28,5.28,0,0,1,2.76,2,5.59,5.59,0,0,1,1,3.35A5.66,5.66,0,0,1,11.24,21a5.9,5.9,0,0,1-2.47,1.48A14.49,14.49,0,0,1,5,22.88ZM3.32,10.65h1a3.92,3.92,0,0,0,2.71-.79A3.05,3.05,0,0,0,7.93,7.5a2.9,2.9,0,0,0-.88-2.29,3.75,3.75,0,0,0-2.56-.78H3.32Zm0,9.19H5.37A5.19,5.19,0,0,0,8.67,19a3.06,3.06,0,0,0,.05-4.69A5.64,5.64,0,0,0,5,13.36H3.32Z"/></g></g></svg>