<svg width="14" height="16" viewBox="0 0 14 16" fill="none" xmlns="http://www.w3.org/2000/svg">
<path d="M0.999939 4.00065H2.33327M2.33327 4.00065H12.9999M2.33327 4.00065V13.334C2.33327 13.6876 2.47375 14.0267 2.7238 14.2768C2.97385 14.5268 3.31298 14.6673 3.66661 14.6673H10.3333C10.6869 14.6673 11.026 14.5268 11.2761 14.2768C11.5261 14.0267 11.6666 13.6876 11.6666 13.334V4.00065H2.33327ZM4.33327 4.00065V2.66732C4.33327 2.3137 4.47375 1.97456 4.7238 1.72451C4.97385 1.47446 5.31298 1.33398 5.66661 1.33398H8.33327C8.6869 1.33398 9.02603 1.47446 9.27608 1.72451C9.52613 1.97456 9.66661 2.3137 9.66661 2.66732V4.00065M5.66661 7.33398V11.334M8.33327 7.33398V11.334" stroke="#333333" stroke-width="2" stroke-linecap="round" stroke-linejoin="round"/>
</svg>
